<?xml version="1.0" encoding="UTF-8"?>
<svg id="_レイヤー_1" data-name="レイヤー 1" xmlns="http://www.w3.org/2000/svg" viewBox="0 0 31.33 14.06">
  <defs>
    <style>
      .cls-1 {
        fill: none;
      }

      .cls-2 {
        fill: #040000;
      }
    </style>
  </defs>
  <polygon class="cls-1" points="20.44 14.06 31.33 14.06 31.33 0 31.07 0 20.44 14.06"/>
  <polygon class="cls-1" points="19.93 0 9.3 14.06 14.47 14.06 25.1 0 19.93 0"/>
  <polygon class="cls-1" points="13.95 0 8.78 0 0 11.62 0 14.06 3.38 14.06 3.35 14.03 13.95 0"/>
  <polygon class="cls-1" points="0 0 0 3.72 2.81 0 0 0"/>
  <polygon class="cls-2" points="13.95 0 3.35 14.03 3.38 14.06 9.3 14.06 19.93 0 13.95 0"/>
  <polygon class="cls-2" points="2.81 0 0 3.72 0 11.62 8.78 0 2.81 0"/>
  <polygon class="cls-2" points="25.1 0 14.47 14.06 20.44 14.06 31.07 0 25.1 0"/>
</svg>