<svg id="レイヤー_1" data-name="レイヤー 1" xmlns="http://www.w3.org/2000/svg" viewBox="0 0 71.22 33.65"><defs><style>.cls-1{stroke:#000;}.cls-1,.cls-2{stroke-linecap:round;stroke-linejoin:round;stroke-width:0.25px;}.cls-2{fill:#e6a81b;stroke:#e6a81b;}</style></defs><path class="cls-1" d="M671.24,394.47c-.44,0-.88.11-1.28.15a1.31,1.31,0,0,1-1.13,2.14c-17,.77-21.89-.91-23.6-5.17-.54.66-1.71,2.12-2.91,3.43a1.56,1.56,0,1,1-2.44-1.53c1-.59,2.48-1.57,3.82-2.48V380.12h-4.51a.81.81,0,0,1-.8-.8.84.84,0,0,1,.8-.84H644a1.21,1.21,0,0,1,2.18.73v11.51c1.61,2.91,6.09,4.84,25,2.58a.6.6,0,0,1,.66.51A.58.58,0,0,1,671.24,394.47Zm-26.19-23.42a1.44,1.44,0,0,1-1.38-1.75,39.56,39.56,0,0,0-2-3.6c-.4-.62.14-1.17.73-.88,2.73,1.35,4.18,3.32,4.11,4.77A1.47,1.47,0,0,1,645.05,371.05Zm12.6,2.7a1.15,1.15,0,0,1-2.22.43h-4.19c0,1.35-.07,2.59-.18,3.75a1.13,1.13,0,0,1,1,.44h3.24a1.18,1.18,0,0,1,2.15.66v10.23a1.17,1.17,0,0,1-2.33.15h-2.8v1a1.13,1.13,0,0,1-2.26,0v-7.72a14.74,14.74,0,0,1-2.84,5.24.59.59,0,0,1-1-.69c2.44-4.88,2.62-8.23,2.62-13.41v-7.32a1.27,1.27,0,0,1,2.3-.69h4.37a1.15,1.15,0,0,1,2.07.69Zm-6.41-1h4.12V367.3h-4.12ZM652.3,388h2.84v-8.23H652.3Zm17.41-16.93H658.6a.74.74,0,0,1-.76-.77.74.74,0,0,1,.76-.76h3.57v-4a1.13,1.13,0,0,1,1.16-1.2,1.19,1.19,0,0,1,1.24,1.2v4h4a1.25,1.25,0,0,1,1.24-1,1.29,1.29,0,0,1,1.28,1.27A1.27,1.27,0,0,1,669.71,371.09Zm.51,9.36h-5.65v4.73h3.5a1.26,1.26,0,0,1,1.24-1,1.28,1.28,0,0,1,0,2.55h-4.7v4.63a1.18,1.18,0,0,1-1.2,1.16,1.15,1.15,0,0,1-1.17-1.16v-4.63h-3.17a.75.75,0,0,1-.76-.76.78.78,0,0,1,.76-.8h3.17v-4.7l-3,0a.74.74,0,0,1-.77-.76.75.75,0,0,1,.77-.77H664c.47-1.45,1.42-4.66,1.86-6.48a1.4,1.4,0,0,1,1.38-1.09,1.44,1.44,0,0,1,.58,2.77c-.76,1.56-2.11,4-2.54,4.8h3.64a1.34,1.34,0,0,1,2.66.19A1.34,1.34,0,0,1,670.22,380.45Zm-8.63-2.73a1.24,1.24,0,0,1-.84-1.75c-.15-.7-.69-2.66-.84-3.17-.22-.69.47-1,.91-.58,1.9,1.74,2.55,3.49,2.26,4.58A1.28,1.28,0,0,1,661.59,377.72Z" transform="translate(-638.26 -364.22)"/><path class="cls-2" d="M692.2,370.36h-3.61v2.11a1.13,1.13,0,0,1-2.25,0v-2.11h-2.88v2.11a1.1,1.1,0,0,1-1.13,1.09,1.07,1.07,0,0,1-1.09-1.09v-2.11h-3.65a.75.75,0,0,1-.76-.77.81.81,0,0,1,.76-.83h3.65V366.1a1.13,1.13,0,0,1,2.26,0v2.73h2.84V366.1a1.13,1.13,0,0,1,2.25,0v2.73H691a1.26,1.26,0,0,1,1.24-1,1.29,1.29,0,0,1,1.28,1.27A1.34,1.34,0,0,1,692.2,370.36Zm-.15,19.41H685c0,.07,0,.18-.07.26a.61.61,0,0,1,.62-.11c4.26,1.67,6.23,3.57,6.3,5a1.47,1.47,0,0,1-1.31,1.53,1.44,1.44,0,0,1-1.53-1.56c-.66-.77-2.59-2.7-4.3-4.26a11.54,11.54,0,0,1-6.45,7,.59.59,0,0,1-.58-1,12.62,12.62,0,0,0,4.88-6.81h-4.92a.79.79,0,0,1-.76-.76.83.83,0,0,1,.8-.77H683c.14-.65.21-1.31.32-2h-4.84a.73.73,0,0,1-.73-.72.73.73,0,0,1,.73-.73h5c.1-.95.14-1.93.18-2.84h-3a1.18,1.18,0,0,1-1.2,1.16,1.15,1.15,0,0,1-1.16-1.16V375.6a1.16,1.16,0,0,1,2-.76h8.85a1.17,1.17,0,0,1,2.11.69v5.9a1.16,1.16,0,0,1-2.19.55H686c0,.91-.07,1.89-.18,2.84h3.82a1.17,1.17,0,0,1,1.17-.95,1.22,1.22,0,0,1,1.2,1.2,1.24,1.24,0,0,1-1.24,1.2h-5.1c-.11.66-.18,1.35-.33,2h5.54a1.17,1.17,0,0,1,1.16-.95,1.25,1.25,0,0,1,1.21,1.24A1.21,1.21,0,0,1,692.05,389.77Zm-11.4-9.21h3v-4.3h-3Zm5.32,0h3v-4.3h-3Zm22,14.64H696.72v1.35a1.22,1.22,0,0,1-1.21,1.2,1.18,1.18,0,0,1-1.16-1.2V375.46c-.51,1-1.13,2.07-1.79,3.13a.57.57,0,1,1-1-.51,122,122,0,0,0,3.83-11.91,1.5,1.5,0,1,1,2.08,1.86c-.26.8-.77,2.29-1.57,4.15a1,1,0,0,1,.69.58h3.35s1.42-4.81,1.57-5.53a1.61,1.61,0,1,1,2,1.85c-.77,1.39-1.93,3.1-2.3,3.68h4.52a1.35,1.35,0,1,1,1.38,1.42H702.4v5.07h3.28a1.23,1.23,0,0,1,1.24-1.1,1.28,1.28,0,1,1-.08,2.55H702.4v5.21h3.28a1.22,1.22,0,0,1,1.24-1.09,1.25,1.25,0,0,1,1.27,1.24,1.36,1.36,0,0,1-1.35,1.31H702.4v6.37h4.3A1.34,1.34,0,0,1,708,392.5a1.35,1.35,0,1,1,0,2.7Zm-11.29-15.95h3.42v-5.07h-3.42Zm0,6.66h3.42V380.7h-3.42Zm0,7.83h3.42v-6.37h-3.42Z" transform="translate(-638.26 -364.22)"/></svg>