<?xml version="1.0" encoding="UTF-8"?>
<svg id="_レイヤー_1" data-name="レイヤー 1" xmlns="http://www.w3.org/2000/svg" viewBox="0 0 196.48 37.84">
  <defs>
    <style>
      .cls-1 {
        stroke: #000;
        stroke-width: .25px;
      }

      .cls-1, .cls-2 {
        stroke-linecap: round;
        stroke-linejoin: round;
      }

      .cls-2 {
        fill: #f9aa00;
        stroke: #f9aa00;
        stroke-width: .5px;
      }
    </style>
  </defs>
  <path class="cls-1" d="m12.87,12.91c0,.68-.56,1.24-1.24,1.24-.6,0-1.12-.44-1.24-1H2.76v22.49c0,.72-.6,1.32-1.32,1.32s-1.32-.6-1.32-1.32V3.6c0-.72.6-1.32,1.32-1.32.48,0,.88.28,1.12.68h7.95c.2-.4.64-.72,1.12-.72.68,0,1.24.6,1.24,1.28v9.39ZM2.76,7.2h7.59v-2.68H2.76v2.68Zm0,4.39h7.59v-2.84H2.76v2.84Zm22.09,20.85c-.32-.04-.64-.12-.96-.16.12,1.12-.92,1.84-2.04,1.4-2.52-.96-4.75-3.32-6.15-6.47-1.76,4.51-4.59,6.75-8.91,7.55-.88.16-1.16-.88-.32-1.24,3.16-1.28,5.67-3.92,6.75-7.15h-6.79c-.44,0-.8-.36-.8-.8s.36-.84.8-.84h7.27c.2-.84.36-1.76.4-2.76h-6.55c-.44,0-.8-.36-.8-.8s.36-.8.8-.8h8.87c.6-1.6,1.08-3,1.6-4.55.12-.4.44-.72.84-.88.8-.32,1.72.04,2.04.84.36.88-.12,1.84-1,2.08-.44.84-1.2,1.84-1.8,2.52h3.76c.12-.6.68-1.04,1.32-1.04.72,0,1.32.6,1.32,1.32,0,.84-.68,1.32-1.4,1.32h-6.43c-.04,1-.12,1.96-.28,2.8h6.19c.08-.68.68-1.2,1.4-1.2.76,0,1.4.64,1.4,1.4,0,.8-.72,1.4-1.48,1.4h-7.03c1.56,2.52,4.51,4.35,8.15,4.79.36.04.6.36.56.72-.04.36-.36.6-.72.56Zm-12.98-12.7c-.92,0-1.6-.88-1.4-1.76-.32-.56-1.04-1.52-1.52-2.12-.48-.6.16-1.28.76-1,1.68.8,3,1.88,3.4,2.76.44.96-.16,2.12-1.24,2.12Zm18.94,15.38c0,1.08-.64,1.8-1.72,1.8-1.28,0-2.08-1.32-1.6-2.44h-1.08c-.36,0-.64-.28-.64-.64s.28-.64.64-.64h1.76V12.99h-7.83c-.04.64-.6,1.16-1.24,1.16-.68,0-1.28-.56-1.28-1.24V3.52c0-.68.6-1.28,1.28-1.28.48,0,.92.32,1.12.72h8.07c.2-.48.64-.8,1.2-.8.72,0,1.32.6,1.32,1.32v31.64ZM20.34,7.2h7.83v-2.68h-7.83v2.68Zm0,4.27h7.83v-2.72h-7.83v2.72Z"/>
  <path class="cls-1" d="m73.32,32.6l-1.32-.24c.56,1.56-.96,2.8-2.48,2.16-7.23-3-11.5-8.67-12.9-10.87v12.7c0,.76-.56,1.36-1.32,1.36s-1.36-.6-1.36-1.36v-11.35c-4.35,4.99-10.75,8.63-15.34,10.31-.76.28-1.24-.8-.56-1.16,4.19-2.28,9.75-6.51,13.78-11.11h-5.19c-.16,1.76-2.8,1.72-2.8-.12v-11.82c0-1.4,1.84-1.96,2.6-.8h7.47l-.04-3.36h-15.26c-.48,0-.88-.4-.88-.88s.4-.88.88-.88h15.22V1.48c0-.76.68-1.36,1.44-1.36s1.36.6,1.36,1.36v3.75h12.82c.08-.8.72-1.48,1.56-1.48s1.6.72,1.6,1.6-.76,1.6-1.64,1.6h-14.34v3.36h8.07c.76-1.16,2.6-.6,2.6.8v11.82c0,1.8-2.64,1.96-2.84.12h-6.47c1.8,2.04,6.71,6.79,15.54,8.27.36.04.56.4.52.76s-.36.6-.72.52Zm-26.64-16.98h7.27v-3.72h-7.27v3.72Zm0,5.87h7.27v-4.27h-7.27v4.27Zm9.95-5.87h7.83v-3.72h-7.83v3.72Zm0,5.87h7.83v-4.27h-7.83v4.27Z"/>
  <path class="cls-1" d="m113.12,34.68c-.48-.16-.92-.32-1.36-.52.28,1.4-1.08,2.52-2.52,1.72-6.91-3.96-12.1-11.19-13.78-20.41-1.36,10.39-6.79,18.22-16.62,21.73-.76.28-1.28-.84-.6-1.24,7.83-4.59,13.34-11.75,14.34-22.21h-14.18c-.48,0-.92-.4-.92-.88s.44-.96.92-.96h14.34c.28-3,.32-5.95.32-9.11,0-1.28,1-2.12,2.08-2.04,1.6.12,2.36,2.2,1.08,3.28,0,2.56-.12,5.23-.32,7.91h14.06c.12-.76.8-1.36,1.6-1.36.88,0,1.56.72,1.56,1.6s-.68,1.56-1.56,1.56h-14.98c2.08,9.23,8.55,16.62,16.98,19.73.32.12.48.52.36.84-.12.32-.48.48-.8.36Z"/>
  <path class="cls-2" d="m154.56,35.08l-1.08-.04c.4,1.28-.48,2.12-1.72,1.92-6.59-1.08-12.02-5.03-15.1-10.95h-2.8v6.39l5.27-1.24c.76-.16,1.16.88.4,1.2-2.64,1.12-7.35,2.8-10.31,3.75-.4,1-1.52,1.4-2.44.8-1.36-.88-.84-2.68.52-3l3.99-.92v-6.99h-4.43c-.8,4.51-2.72,7.55-6.51,9.87-.64.4-1.32-.48-.76-1.04,3-3.04,4.91-5.91,4.91-14.34v-1.92c0-1.36,1.92-1.92,2.72-.68h23.13c.12-.64.68-1.16,1.36-1.16.76,0,1.4.64,1.4,1.4s-.64,1.4-1.4,1.4h-24.49c0,1.64.04,3.28-.12,4.91h24.17c.08-.68.64-1.24,1.36-1.24.76,0,1.4.64,1.4,1.4s-.52,1.4-1.36,1.4h-14.42c.92,1.16,2.32,2.52,3.63,3.52l2.88-2.56c1-.92,2.72-.36,2.72,1.12,0,1.16-1.2,1.88-2.24,1.44l-2.28.92c3.36,2.16,7.39,3.28,11.62,3.36.36,0,.64.32.64.68s-.32.6-.68.6Zm-2.44-25.13l-1.72,1.24c-.52.36-1.24-.16-.96-.8l.96-2.32h-11.82v7.47c0,.76-.6,1.36-1.36,1.36s-1.32-.6-1.32-1.36v-7.47h-11.18c-.2,1.88-1.04,3.48-2.12,4.15-.76.48-1.8.24-2.28-.52-.64-1-.04-2.24,1.04-2.48,1-.92,1.6-1.6,2.12-2.92.24-.6,1.12-.52,1.24.12h11.15v-2.24h-10.55c-.44,0-.8-.36-.8-.8s.36-.84.8-.84h23.41c.12-.68.68-1.16,1.36-1.16.76,0,1.4.64,1.4,1.4,0,.8-.68,1.4-1.44,1.4h-11.46v2.24h12.78c1-.68,2.44-.28,2.92.88.6,1.44-.68,2.88-2.16,2.64Zm-20.01,5.39h-5.43c-.44,0-.8-.32-.8-.76s.36-.8.8-.8h4.39c.16-.48.6-.84,1.16-.84.64,0,1.16.56,1.16,1.2,0,.68-.56,1.2-1.28,1.2Zm0-3.4h-5.43c-.44,0-.76-.32-.76-.76s.32-.8.76-.8h4.51c.16-.48.6-.84,1.12-.84.68,0,1.2.52,1.2,1.2,0,.84-.68,1.2-1.4,1.2Zm14.66,10.87h-16.06c-.44,0-.8-.32-.8-.76s.36-.76.8-.76h14.86c.16-.52.64-.92,1.2-.92.68,0,1.28.56,1.28,1.24,0,.76-.56,1.2-1.28,1.2Zm-.84-10.95h-4.91c-.44,0-.76-.32-.76-.76s.32-.76.76-.76h3.92c.16-.48.6-.88,1.16-.88.64,0,1.16.56,1.16,1.2,0,.68-.6,1.2-1.32,1.2Zm1.16,3.48h-5.83c-.44,0-.76-.32-.76-.76s.32-.8.76-.8h4.67c.16-.48.64-.84,1.16-.84.68,0,1.2.52,1.2,1.2,0,.64-.52,1.2-1.2,1.2Z"/>
  <path class="cls-1" d="m195.67,34.92c-.44-.04-.72-.04-1.12-.12.48,1.24-.52,2.28-1.88,1.96-7.75-1.84-12.62-7.47-14.58-14.82-1.6,8.87-7.43,13.98-16.46,15.62-.32.04-.64-.12-.72-.44-.12-.36.08-.68.4-.8,9.27-3.08,14.18-9.71,14.46-18.62.04-.68.4-1.28,1-1.56.84-.36,1.8,0,2.16.84.24.6.16,1.2-.2,1.68.36,1.6,1.44,4.71,2.4,6.23,1.72-1.56,4.04-3.76,5.71-5.51,1.12-1.16,3.08-.36,3.12,1.2.04,1.12-.88,1.92-1.92,1.84-2.32,1.6-5.51,3.24-6.19,3.56,2.52,3.64,6.59,6.87,13.94,7.63.36.04.6.36.56.72-.04.36-.32.64-.68.6Zm-27.28-30.08c-1.08,1.68-2.2,2.92-3.36,3.96,3.08,2.2,4.31,4.03,4.35,5.67.04,1.04-.64,1.96-1.76,1.88s-1.68-1.08-1.44-2.12c-.68-2.32-1.8-3.99-2.8-4.91-.52-.48-.24-1.28.44-1.24.84-1.56,2.04-4.15,2.72-5.71.28-.68.88-1.04,1.64-1.04.96,0,1.76.8,1.76,1.76s-.68,1.68-1.56,1.76Zm-1.76,22.21c-.8.6-1.8.52-2.4-.36-.68-.96-.2-2.24.84-2.56.68-.88,1.76-2.56,2.16-3.36.28-.6,1.2-.44,1.24.24.12,2.84-.64,5.15-1.84,6.03Zm11.79-22.25c-.84,1.2-2.28,2.8-3.2,3.68,2.08,1.16,3.2,2.6,3.72,4.19.36,1.12-.36,2.36-1.64,2.24-1.08-.08-1.68-.96-1.48-1.96-.76-1.6-1.72-3.08-2.56-3.99-.56-.48-.16-1.44.76-1.08.56-1.12,2.12-4.35,2.6-5.51.28-.68.88-1.08,1.64-1.08,1,0,1.76.8,1.76,1.76s-.68,1.68-1.6,1.76Zm10.39.32c-1.4,1.84-2.96,3.16-3.83,3.79,2.28,1.36,3.8,2.92,4.27,4.51.44,1.04-.36,2.24-1.52,2.24-1.08,0-1.76-.88-1.64-1.88-.84-1.76-2.08-3.6-2.92-4.35-.52-.48-.08-1.36.64-1.16,1.24-1.72,2.44-3.83,3.36-5.71.28-.56.84-1,1.6-1,.96,0,1.8.8,1.8,1.76s-.8,1.76-1.76,1.8Z"/>
</svg>