<svg xmlns="http://www.w3.org/2000/svg" width="40" height="40" viewBox="0 0 40 40"><title>アセット 3</title><g id="レイヤー_2" data-name="レイヤー 2"><g id="レイヤー1"><rect width="40" height="40" style="fill:none"/><path d="M20,28.333A3.333,3.333,0,1,0,16.667,25,3.343,3.343,0,0,0,20,28.333Zm5.167-13H11a3.343,3.343,0,0,0-3.333,3.333V31.333A3.343,3.343,0,0,0,11,34.667H29a3.343,3.343,0,0,0,3.333-3.333V18.667A3.343,3.343,0,0,0,29,15.333h-.667m.667,16H11V18.667H29Z" style="fill:#fe5d4b"/><path d="M26.56,16.061A8.333,8.333,0,1,0,14.775,4.276l2.239,2.239a5.167,5.167,0,0,1,7.307,7.307" style="fill:#fe5d4b"/><path d="M20.668,18.5a8.307,8.307,0,0,0,5.893-2.44l-2.239-2.239a5.15,5.15,0,0,1-3.653,1.511V18.5Z" style="fill:#fe5d4b"/></g></g></svg>