<?xml version="1.0" encoding="utf-8"?>
<!-- Generator: Adobe Illustrator 27.5.0, SVG Export Plug-In . SVG Version: 6.00 Build 0)  -->
<svg version="1.1" id="_レイヤー_1" xmlns="http://www.w3.org/2000/svg" xmlns:xlink="http://www.w3.org/1999/xlink" x="0px"
	 y="0px" viewBox="0 0 20.1 106.6" style="enable-background:new 0 0 20.1 106.6;" xml:space="preserve">
<style type="text/css">
	.st0{fill:#E6A81B;stroke:#E6A81B;stroke-width:0.29;stroke-linecap:round;stroke-linejoin:round;}
</style>
<path d="M8.6,5.9c0,0.4-0.3,0.7-0.7,0.7C7.6,6.5,7.3,6.3,7.2,6H3.1v12.3c0,0.4-0.3,0.7-0.7,0.7s-0.7-0.3-0.7-0.7V0.8
	c0-0.4,0.3-0.7,0.7-0.7c0.3,0,0.5,0.2,0.6,0.4h4.3c0.1-0.2,0.3-0.4,0.6-0.4c0.4,0,0.7,0.3,0.7,0.7V5.9L8.6,5.9z M3.1,2.8h4.2V1.3
	H3.1V2.8z M3.1,5.2h4.2V3.6H3.1V5.2z M15.1,16.5c-0.2,0-0.4-0.1-0.5-0.1c0.1,0.6-0.5,1-1.1,0.8c-1.4-0.5-2.6-1.8-3.4-3.5
	c-1,2.5-2.5,3.7-4.9,4.1c-0.5,0.1-0.6-0.5-0.2-0.7c1.7-0.7,3.1-2.1,3.7-3.9H5.1c-0.2,0-0.4-0.2-0.4-0.4s0.2-0.5,0.4-0.5h4
	c0.1-0.5,0.2-1,0.2-1.5H5.7c-0.2,0-0.4-0.2-0.4-0.4s0.2-0.4,0.4-0.4h4.8c0.3-0.9,0.6-1.6,0.9-2.5C11.5,7.2,11.7,7,11.9,7
	c0.4-0.2,0.9,0,1.1,0.5c0.2,0.5-0.1,1-0.6,1.1c-0.2,0.5-0.6,1-1,1.4h2.1c0.1-0.3,0.4-0.6,0.7-0.6c0.4,0,0.7,0.3,0.7,0.7
	c0,0.5-0.4,0.7-0.8,0.7h-3.5c0,0.6-0.1,1.1-0.1,1.5h3.4c0-0.4,0.4-0.6,0.8-0.6c0.4,0,0.8,0.4,0.8,0.8c0,0.4-0.4,0.8-0.8,0.8h-3.8
	c0.9,1.4,2.5,2.4,4.4,2.6c0.2,0,0.3,0.2,0.3,0.4C15.5,16.4,15.3,16.5,15.1,16.5L15.1,16.5z M8.1,9.6c-0.5,0-0.9-0.5-0.8-1
	C7.1,8.3,6.7,7.8,6.5,7.5C6.2,7.2,6.6,6.8,6.9,6.9c0.9,0.4,1.6,1,1.9,1.5C9,9,8.6,9.6,8.1,9.6L8.1,9.6z M18.4,18c0,0.6-0.4,1-0.9,1
	c-0.7,0-1.1-0.7-0.9-1.3H16c-0.2,0-0.4-0.1-0.4-0.4s0.1-0.4,0.4-0.4h1v-11h-4.3c0,0.3-0.3,0.6-0.7,0.6c-0.4,0-0.7-0.3-0.7-0.7V0.7
	C11.3,0.4,11.6,0,12,0c0.3,0,0.5,0.2,0.6,0.4H17C17.1,0.2,17.4,0,17.7,0c0.4,0,0.7,0.3,0.7,0.7L18.4,18L18.4,18z M12.7,2.8H17V1.3
	h-4.3V2.8z M12.7,5.1H17V3.6h-4.3V5.1z"/>
<path d="M19.7,38.4L19,38.3c0.3,0.8-0.5,1.5-1.4,1.2c-3.9-1.6-6.3-4.7-7.1-5.9v6.9c0,0.4-0.3,0.7-0.7,0.7s-0.7-0.3-0.7-0.7v-6.2
	C6.7,37,3.2,39,0.7,39.9c-0.4,0.2-0.7-0.4-0.3-0.6c2.3-1.2,5.3-3.6,7.5-6.1H5.1c-0.1,1-1.5,0.9-1.5-0.1v-6.5c0-0.8,1-1.1,1.4-0.4
	h4.1l0-1.8H0.7c-0.3,0-0.5-0.2-0.5-0.5s0.2-0.5,0.5-0.5H9v-2c0-0.4,0.4-0.7,0.8-0.7s0.7,0.3,0.7,0.7v2h7c0-0.4,0.4-0.8,0.9-0.8
	c0.5,0,0.9,0.4,0.9,0.9s-0.4,0.9-0.9,0.9h-7.8v1.8H15c0.4-0.6,1.4-0.3,1.4,0.4v6.5c0,1-1.4,1.1-1.6,0.1h-3.5c1,1.1,3.7,3.7,8.5,4.5
	c0.2,0,0.3,0.2,0.3,0.4C20.1,38.3,19.9,38.5,19.7,38.4L19.7,38.4z M5.1,29.2h4v-2h-4V29.2z M5.1,32.4h4V30h-4V32.4z M10.6,29.2h4.3
	v-2h-4.3V29.2z M10.6,32.4h4.3V30h-4.3V32.4z"/>
<path d="M19.5,61.4c-0.3-0.1-0.5-0.2-0.7-0.3c0.1,0.8-0.6,1.4-1.4,0.9c-3.8-2.2-6.6-6.1-7.5-11.1c-0.7,5.7-3.7,10-9.1,11.9
	c-0.4,0.2-0.7-0.5-0.3-0.7c4.3-2.5,7.3-6.4,7.8-12.1H0.5C0.2,50,0,49.7,0,49.5S0.2,49,0.5,49h7.8c0.1-1.6,0.2-3.2,0.2-5
	c0-0.7,0.6-1.2,1.1-1.1c0.9,0.1,1.3,1.2,0.6,1.8c0,1.4-0.1,2.9-0.2,4.3h7.7c0.1-0.4,0.4-0.7,0.9-0.7c0.5,0,0.9,0.4,0.9,0.9
	S19.1,50,18.6,50h-8.2c1.1,5,4.7,9.1,9.3,10.8c0.2,0.1,0.3,0.3,0.2,0.5C19.8,61.4,19.6,61.5,19.5,61.4L19.5,61.4z"/>
<path class="st0" d="M19.3,83.4l-0.6,0c0.2,0.7-0.3,1.2-0.9,1.1c-3.6-0.6-6.6-2.8-8.2-6H8V82l2.9-0.7c0.4-0.1,0.6,0.5,0.2,0.7
	c-1.4,0.6-4,1.5-5.6,2.1c-0.2,0.6-0.8,0.8-1.3,0.4c-0.7-0.5-0.5-1.5,0.3-1.6l2.2-0.5v-3.8H4.2c-0.4,2.5-1.5,4.1-3.6,5.4
	c-0.3,0.2-0.7-0.3-0.4-0.6c1.6-1.7,2.7-3.2,2.7-7.8v-1.1c0-0.7,1-1.1,1.5-0.4H17c0.1-0.3,0.4-0.6,0.7-0.6c0.4,0,0.8,0.3,0.8,0.8
	s-0.4,0.8-0.8,0.8H4.4c0,0.9,0,1.8-0.1,2.7h13.2c0-0.4,0.4-0.7,0.7-0.7c0.4,0,0.8,0.3,0.8,0.8s-0.3,0.8-0.7,0.8h-7.9
	c0.5,0.6,1.3,1.4,2,1.9L14,79c0.6-0.5,1.5-0.2,1.5,0.6c0,0.6-0.6,1-1.2,0.8L13,80.9c1.8,1.2,4,1.8,6.3,1.8c0.2,0,0.4,0.2,0.4,0.4
	S19.5,83.4,19.3,83.4L19.3,83.4z M18,69.7L17,70.4c-0.3,0.2-0.7-0.1-0.5-0.4l0.5-1.3h-6.5v4.1c0,0.4-0.3,0.7-0.7,0.7
	s-0.7-0.3-0.7-0.7v-4.1H3c-0.1,1-0.6,1.9-1.2,2.3c-0.4,0.3-1,0.1-1.2-0.3c-0.3-0.6,0-1.2,0.6-1.3c0.5-0.5,0.9-0.9,1.2-1.6
	C2.5,67.4,3,67.4,3,67.8h6.1v-1.2H3.3c-0.2,0-0.4-0.2-0.4-0.4s0.2-0.5,0.4-0.5h12.8c0.1-0.4,0.4-0.6,0.7-0.6c0.4,0,0.8,0.3,0.8,0.8
	c0,0.4-0.4,0.8-0.8,0.8h-6.3v1.2h7c0.5-0.4,1.3-0.2,1.6,0.5C19.5,69.1,18.8,69.8,18,69.7L18,69.7z M7,72.6h-3
	c-0.2,0-0.4-0.2-0.4-0.4s0.2-0.4,0.4-0.4h2.4c0.1-0.3,0.3-0.5,0.6-0.5c0.3,0,0.6,0.3,0.6,0.7C7.7,72.4,7.4,72.6,7,72.6L7,72.6z
	 M7,70.8h-3c-0.2,0-0.4-0.2-0.4-0.4s0.2-0.4,0.4-0.4h2.5c0.1-0.3,0.3-0.5,0.6-0.5c0.4,0,0.7,0.3,0.7,0.7C7.8,70.6,7.4,70.8,7,70.8
	L7,70.8z M15.1,76.7H6.3c-0.2,0-0.4-0.2-0.4-0.4s0.2-0.4,0.4-0.4h8.1c0.1-0.3,0.4-0.5,0.6-0.5c0.4,0,0.7,0.3,0.7,0.7
	C15.7,76.5,15.4,76.7,15.1,76.7L15.1,76.7z M14.6,70.8h-2.7c-0.2,0-0.4-0.2-0.4-0.4s0.2-0.4,0.4-0.4h2.1c0.1-0.3,0.3-0.5,0.6-0.5
	c0.4,0,0.6,0.3,0.6,0.7C15.3,70.5,15,70.8,14.6,70.8z M15.2,72.7H12c-0.2,0-0.4-0.2-0.4-0.4s0.2-0.4,0.4-0.4h2.6
	c0.1-0.3,0.4-0.5,0.6-0.5c0.4,0,0.6,0.3,0.6,0.7C15.9,72.3,15.6,72.6,15.2,72.7L15.2,72.7z"/>
<path d="M19.8,105.2c-0.2,0-0.4,0-0.6-0.1c0.3,0.7-0.3,1.2-1,1.1c-4.2-1-6.9-4.1-8-8.1c-0.9,4.8-4.1,7.6-9,8.5
	c-0.2,0-0.4-0.1-0.4-0.2c-0.1-0.2,0-0.4,0.2-0.4c5.1-1.7,7.8-5.3,7.9-10.2c0-0.4,0.2-0.7,0.6-0.8c0.5-0.2,1,0,1.2,0.5
	c0.1,0.3,0.1,0.7-0.1,0.9c0.2,0.9,0.8,2.6,1.3,3.4c0.9-0.8,2.2-2.1,3.1-3c0.6-0.6,1.7-0.2,1.7,0.7c0,0.6-0.5,1.1-1.1,1
	c-1.3,0.9-3,1.8-3.4,1.9c1.4,2,3.6,3.8,7.6,4.2c0.2,0,0.3,0.2,0.3,0.4S20,105.2,19.8,105.2L19.8,105.2z M4.9,88.7
	c-0.6,0.9-1.2,1.6-1.8,2.2c1.7,1.2,2.4,2.2,2.4,3.1c0,0.6-0.3,1.1-1,1s-0.9-0.6-0.8-1.2c-0.4-1.3-1-2.2-1.5-2.7
	c-0.3-0.3-0.1-0.7,0.2-0.7c0.5-0.8,1.1-2.3,1.5-3.1C4,87,4.3,86.8,4.7,86.8c0.5,0,1,0.4,1,1S5.3,88.7,4.9,88.7L4.9,88.7z M3.9,100.8
	c-0.4,0.3-1,0.3-1.3-0.2c-0.4-0.5-0.1-1.2,0.5-1.4c0.4-0.5,1-1.4,1.2-1.8c0.2-0.3,0.7-0.2,0.7,0.1C5,99.1,4.6,100.4,3.9,100.8
	L3.9,100.8z M10.3,88.7c-0.5,0.7-1.2,1.5-1.8,2c1.1,0.6,1.8,1.4,2,2.3c0.2,0.6-0.2,1.3-0.9,1.2c-0.6,0-0.9-0.5-0.8-1.1
	C8.5,92.3,8,91.5,7.5,91c-0.3-0.3-0.1-0.8,0.4-0.6c0.3-0.6,1.2-2.4,1.4-3c0.1-0.4,0.5-0.6,0.9-0.6c0.6,0,1,0.4,1,1
	S10.8,88.7,10.3,88.7z M16,88.9c-0.8,1-1.6,1.7-2.1,2.1c1.2,0.7,2.1,1.6,2.3,2.5c0.2,0.6-0.2,1.2-0.8,1.2c-0.6,0-1-0.5-0.9-1
	c-0.5-1-1.1-2-1.6-2.4c-0.3-0.3,0-0.7,0.4-0.6c0.7-0.9,1.3-2.1,1.8-3.1c0.1-0.3,0.5-0.6,0.9-0.6c0.5,0,1,0.4,1,1S16.5,88.8,16,88.9
	L16,88.9z"/>
</svg>
