<svg id="レイヤー_1" data-name="レイヤー 1" xmlns="http://www.w3.org/2000/svg" viewBox="0 0 20.4 42.04"><defs><style>.cls-1{stroke:#000;stroke-width:0.14px;}.cls-1,.cls-2{stroke-linecap:round;stroke-linejoin:round;}.cls-2{fill:#e6a81b;stroke:#e6a81b;stroke-width:0.29px;}</style></defs><path class="cls-1" d="M692.38,374.92l-.76.08a.79.79,0,0,1-.67,1.29c-10.22.46-13.12-.54-14.14-3.1-.33.4-1,1.27-1.75,2.05a.93.93,0,1,1-1.46-.91c.59-.35,1.48-.94,2.29-1.49v-6.52h-2.71a.49.49,0,0,1-.48-.48.5.5,0,0,1,.48-.5H676a.73.73,0,0,1,1.31.43v6.9c1,1.75,3.65,2.9,14.95,1.55a.35.35,0,0,1,.39.3A.35.35,0,0,1,692.38,374.92Zm-15.68-14a.87.87,0,0,1-.83-1.05c-.18-.39-.88-1.64-1.22-2.16s.08-.7.43-.52c1.64.8,2.51,2,2.47,2.85A.89.89,0,0,1,676.7,360.89Zm7.55,1.61a.69.69,0,0,1-1.33.26h-2.51c0,.81,0,1.55-.11,2.25a.68.68,0,0,1,.61.26h1.94a.71.71,0,0,1,1.29.4v6.13a.7.7,0,0,1-1.4.08h-1.68v.61a.68.68,0,1,1-1.35,0v-4.62A8.75,8.75,0,0,1,678,371a.35.35,0,0,1-.57-.41c1.46-2.93,1.57-4.93,1.57-8v-4.39a.76.76,0,0,1,1.37-.41H683a.69.69,0,0,1,1.25.41Zm-3.84-.61h2.46v-3.25h-2.46Zm.63,9.16h1.7v-4.93H681Zm10.43-10.14h-6.66a.46.46,0,0,1,0-.92H687v-2.4a.69.69,0,0,1,.7-.72.72.72,0,0,1,.74.72V360h2.38a.75.75,0,0,1,.74-.61.77.77,0,0,1,.77.76A.76.76,0,0,1,691.47,360.91Zm.3,5.61h-3.38v2.83h2.1a.74.74,0,0,1,.74-.61.77.77,0,0,1,0,1.53h-2.82V373a.71.71,0,0,1-.72.7.69.69,0,0,1-.69-.7v-2.77h-1.9a.45.45,0,0,1-.46-.46.47.47,0,0,1,.46-.48H687v-2.81l-1.79,0a.46.46,0,0,1,0-.92H688c.29-.87.85-2.79,1.12-3.88a.84.84,0,0,1,.83-.66.86.86,0,0,1,.34,1.66c-.45.94-1.26,2.4-1.52,2.88H691a.8.8,0,0,1,1.59.11A.8.8,0,0,1,691.77,366.52Zm-5.17-1.64a.74.74,0,0,1-.5-1.05c-.09-.41-.41-1.59-.5-1.9a.32.32,0,0,1,.54-.35c1.14,1.05,1.53,2.1,1.36,2.75A.76.76,0,0,1,686.6,364.88Z" transform="translate(-672.63 -356.8)"/><path class="cls-2" d="M682.61,382.29h-2.16v1.26a.67.67,0,0,1-.68.66.66.66,0,0,1-.67-.66v-1.26h-1.73v1.26a.66.66,0,0,1-.67.66.65.65,0,0,1-.66-.66v-1.26h-2.18a.45.45,0,0,1-.46-.46.49.49,0,0,1,.46-.5H676v-1.6a.68.68,0,0,1,1.36,0v1.64h1.7v-1.64a.65.65,0,0,1,.67-.65.66.66,0,0,1,.68.65v1.64h1.46a.75.75,0,0,1,.74-.61.77.77,0,0,1,.77.76A.81.81,0,0,1,682.61,382.29Zm-.09,11.63h-4.25s0,.11,0,.15a.4.4,0,0,1,.38-.07c2.55,1,3.73,2.14,3.77,3a.89.89,0,0,1-.79.91.85.85,0,0,1-.91-.94c-.39-.45-1.55-1.61-2.58-2.55a6.88,6.88,0,0,1-3.86,4.17.35.35,0,0,1-.35-.61,7.66,7.66,0,0,0,2.93-4.08h-2.95a.48.48,0,0,1-.46-.46.5.5,0,0,1,.48-.46h3.21c.09-.39.13-.79.2-1.18h-2.91a.43.43,0,0,1-.43-.43.44.44,0,0,1,.43-.44h3c.06-.57.08-1.16.1-1.7h-1.81a.71.71,0,0,1-.72.7.7.7,0,0,1-.7-.7v-3.82a.7.7,0,0,1,1.23-.46h5.3a.7.7,0,0,1,1.26.42v3.53a.69.69,0,0,1-1.3.33H678.9c0,.54,0,1.13-.11,1.7h2.29a.71.71,0,0,1,.7-.57.73.73,0,0,1,.72.72.74.74,0,0,1-.74.72H678.7c-.06.39-.1.81-.19,1.2h3.31a.71.71,0,0,1,.7-.56.73.73,0,0,1,.72.74A.72.72,0,0,1,682.52,393.92Zm-6.83-5.52h1.81v-2.58h-1.81Zm3.19,0h1.79v-2.58h-1.79Zm13.18,8.77h-6.74V398a.73.73,0,0,1-.72.72.71.71,0,0,1-.7-.72V385.34c-.31.61-.68,1.25-1.07,1.88a.34.34,0,1,1-.61-.31,73.74,73.74,0,0,0,2.29-7.13.9.9,0,1,1,1.24,1.11,26.32,26.32,0,0,1-.94,2.49.59.59,0,0,1,.42.35h2s.85-2.88.93-3.32a1,1,0,1,1,1.23,1.11c-.46.83-1.16,1.86-1.38,2.21h2.71a.81.81,0,1,1,.83.85h-2.84v3h2a.74.74,0,0,1,.75-.65.77.77,0,0,1,.76.76.78.78,0,0,1-.81.76h-2.66v3.12h2a.74.74,0,0,1,.75-.65.76.76,0,0,1,.76.74.82.82,0,0,1-.81.79h-2.66v3.82h2.57a.8.8,0,1,1,.77.87Zm-6.77-9.56h2.06v-3h-2.06Zm0,4h2.06v-3.12h-2.06Zm0,4.7h2.06v-3.82h-2.06Z" transform="translate(-672.63 -356.8)"/></svg>