<?xml version="1.0" encoding="UTF-8"?>
<svg id="_レイヤー_1" data-name="レイヤー 1" xmlns="http://www.w3.org/2000/svg" viewBox="0 0 20.12 106.59">
  <path d="m8.6,5.87c0,.37-.31.68-.68.68-.33,0-.61-.24-.68-.55H3.08v12.28c0,.39-.33.72-.72.72s-.72-.33-.72-.72V.79C1.64.39,1.96.07,2.36.07c.26,0,.48.15.61.37h4.34c.11-.22.35-.39.61-.39.37,0,.68.33.68.7v5.13ZM3.08,2.75h4.15v-1.46H3.08v1.46Zm0,2.4h4.15v-1.55H3.08v1.55Zm12.07,11.39c-.17-.02-.35-.07-.52-.09.07.61-.5,1-1.11.76-1.38-.52-2.6-1.81-3.36-3.53-.96,2.47-2.51,3.69-4.87,4.12-.48.09-.63-.48-.17-.68,1.72-.7,3.1-2.14,3.69-3.91h-3.71c-.24,0-.44-.2-.44-.44s.2-.46.44-.46h3.97c.11-.46.2-.96.22-1.51h-3.58c-.24,0-.44-.2-.44-.44s.2-.44.44-.44h4.84c.33-.87.59-1.64.87-2.49.07-.22.24-.39.46-.48.44-.17.94.02,1.11.46.2.48-.07,1-.55,1.13-.24.46-.65,1-.98,1.37h2.05c.07-.33.37-.57.72-.57.39,0,.72.33.72.72,0,.46-.37.72-.76.72h-3.51c-.02.55-.07,1.07-.15,1.53h3.38c.04-.37.37-.65.76-.65.41,0,.76.35.76.76,0,.44-.39.76-.81.76h-3.84c.85,1.38,2.47,2.38,4.45,2.62.2.02.33.2.31.39-.02.2-.2.33-.39.31Zm-7.09-6.94c-.5,0-.87-.48-.76-.96-.17-.31-.57-.83-.83-1.16-.26-.33.09-.7.41-.55.92.44,1.64,1.03,1.85,1.51.24.52-.09,1.16-.68,1.16Zm10.34,8.4c0,.59-.35.98-.94.98-.7,0-1.13-.72-.87-1.33h-.59c-.2,0-.35-.15-.35-.35s.15-.35.35-.35h.96V5.91h-4.28c-.02.35-.33.63-.68.63-.37,0-.7-.31-.7-.68V.74c0-.37.33-.7.7-.7.26,0,.5.17.61.39h4.41c.11-.26.35-.44.65-.44.39,0,.72.33.72.72v17.28ZM12.68,2.75h4.28v-1.46h-4.28v1.46Zm0,2.33h4.28v-1.48h-4.28v1.48Z"/>
  <path d="m19.68,38.44l-.72-.13c.31.85-.52,1.53-1.35,1.18-3.95-1.64-6.28-4.73-7.05-5.94v6.94c0,.41-.31.74-.72.74s-.74-.33-.74-.74v-6.2c-2.38,2.73-5.87,4.71-8.38,5.63-.41.15-.68-.44-.31-.63,2.29-1.24,5.32-3.56,7.53-6.07h-2.84c-.09.96-1.53.94-1.53-.07v-6.46c0-.76,1-1.07,1.42-.44h4.08l-.02-1.83H.72c-.26,0-.48-.22-.48-.48s.22-.48.48-.48h8.31v-2.03c0-.41.37-.74.79-.74s.74.33.74.74v2.05h7c.04-.44.39-.81.85-.81.48,0,.87.39.87.87s-.41.87-.89.87h-7.83v1.83h4.41c.41-.63,1.42-.33,1.42.44v6.46c0,.98-1.44,1.07-1.55.07h-3.54c.98,1.11,3.67,3.71,8.49,4.52.2.02.31.22.28.41-.02.2-.2.33-.39.28Zm-14.55-9.27h3.97v-2.03h-3.97v2.03Zm0,3.21h3.97v-2.33h-3.97v2.33Zm5.43-3.21h4.28v-2.03h-4.28v2.03Zm0,3.21h4.28v-2.33h-4.28v2.33Z"/>
  <path d="m19.46,61.39c-.26-.09-.5-.17-.74-.28.15.76-.59,1.38-1.37.94-3.77-2.16-6.61-6.11-7.53-11.15-.74,5.67-3.71,9.95-9.08,11.87-.41.15-.7-.46-.33-.68,4.28-2.51,7.29-6.42,7.83-12.13H.5c-.26,0-.5-.22-.5-.48s.24-.52.5-.52h7.83c.15-1.64.17-3.25.17-4.98,0-.7.55-1.16,1.13-1.11.87.07,1.29,1.2.59,1.79,0,1.4-.07,2.86-.17,4.32h7.68c.07-.41.44-.74.87-.74.48,0,.85.39.85.87s-.37.85-.85.85h-8.18c1.13,5.04,4.67,9.08,9.27,10.78.17.07.26.28.2.46-.07.17-.26.26-.44.2Z"/>
  <path d="m19.31,83.42l-.59-.02c.22.7-.26,1.16-.94,1.05-3.6-.59-6.57-2.75-8.25-5.98h-1.53v3.49l2.88-.68c.41-.09.63.48.22.65-1.44.61-4.01,1.53-5.63,2.05-.22.55-.83.76-1.33.44-.74-.48-.46-1.46.28-1.64l2.18-.5v-3.82h-2.42c-.44,2.47-1.48,4.12-3.56,5.39-.35.22-.72-.26-.41-.57,1.64-1.66,2.68-3.23,2.68-7.83v-1.05c0-.74,1.05-1.05,1.48-.37h12.63c.07-.35.37-.63.74-.63.41,0,.76.35.76.76s-.35.76-.76.76H4.39c0,.89.02,1.79-.07,2.68h13.2c.04-.37.35-.68.74-.68.41,0,.76.35.76.76s-.28.76-.74.76h-7.88c.5.63,1.27,1.38,1.99,1.92l1.57-1.4c.55-.5,1.48-.2,1.48.61,0,.63-.65,1.03-1.22.79l-1.24.5c1.83,1.18,4.04,1.79,6.35,1.83.2,0,.35.17.35.37s-.17.33-.37.33Zm-1.33-13.72l-.94.68c-.28.2-.68-.09-.52-.44l.52-1.27h-6.46v4.08c0,.41-.33.74-.74.74s-.72-.33-.72-.74v-4.08H3.01c-.11,1.03-.57,1.9-1.16,2.27-.41.26-.98.13-1.24-.28-.35-.55-.02-1.22.57-1.35.55-.5.87-.87,1.16-1.59.13-.33.61-.28.68.07h6.09v-1.22H3.34c-.24,0-.44-.2-.44-.44s.2-.46.44-.46h12.79c.07-.37.37-.63.74-.63.41,0,.76.35.76.76,0,.44-.37.76-.79.76h-6.26v1.22h6.98c.55-.37,1.33-.15,1.59.48.33.79-.37,1.57-1.18,1.44Zm-10.93,2.95h-2.97c-.24,0-.44-.17-.44-.41s.2-.44.44-.44h2.4c.09-.26.33-.46.63-.46.35,0,.63.31.63.65,0,.37-.31.65-.7.65Zm0-1.85h-2.97c-.24,0-.41-.17-.41-.41s.17-.44.41-.44h2.47c.09-.26.33-.46.61-.46.37,0,.65.28.65.65,0,.46-.37.65-.76.65Zm8.01,5.94H6.28c-.24,0-.44-.17-.44-.41s.2-.41.44-.41h8.12c.09-.28.35-.5.65-.5.37,0,.7.31.7.68,0,.41-.31.65-.7.65Zm-.46-5.98h-2.68c-.24,0-.41-.17-.41-.41s.17-.41.41-.41h2.14c.09-.26.33-.48.63-.48.35,0,.63.31.63.65,0,.37-.33.65-.72.65Zm.63,1.9h-3.19c-.24,0-.41-.17-.41-.41s.17-.44.41-.44h2.55c.09-.26.35-.46.63-.46.37,0,.65.28.65.65,0,.35-.28.65-.65.65Z"/>
  <path d="m19.75,105.15c-.24-.02-.39-.02-.61-.07.26.68-.28,1.24-1.03,1.07-4.23-1-6.9-4.08-7.96-8.1-.87,4.84-4.06,7.64-8.99,8.53-.17.02-.35-.07-.39-.24-.07-.2.04-.37.22-.44,5.06-1.68,7.75-5.3,7.9-10.17.02-.37.22-.7.55-.85.46-.2.98,0,1.18.46.13.33.09.65-.11.92.2.87.79,2.57,1.31,3.4.94-.85,2.2-2.05,3.12-3.01.61-.63,1.68-.2,1.7.65.02.61-.48,1.05-1.05,1-1.27.87-3.01,1.77-3.38,1.94,1.37,1.99,3.6,3.75,7.61,4.17.2.02.33.2.31.39s-.17.35-.37.33Zm-14.9-16.43c-.59.92-1.2,1.59-1.83,2.16,1.68,1.2,2.36,2.2,2.38,3.1.02.57-.35,1.07-.96,1.03s-.92-.59-.79-1.16c-.37-1.27-.98-2.18-1.53-2.68-.28-.26-.13-.7.24-.68.46-.85,1.11-2.27,1.48-3.12.15-.37.48-.57.89-.57.52,0,.96.44.96.96s-.37.92-.85.96Zm-.96,12.13c-.44.33-.98.28-1.31-.2-.37-.52-.11-1.22.46-1.4.37-.48.96-1.4,1.18-1.83.15-.33.65-.24.68.13.07,1.55-.35,2.81-1,3.29Zm6.44-12.15c-.46.65-1.24,1.53-1.75,2.01,1.13.63,1.75,1.42,2.03,2.29.2.61-.2,1.29-.89,1.22-.59-.04-.92-.52-.81-1.07-.41-.87-.94-1.68-1.4-2.18-.31-.26-.09-.79.41-.59.31-.61,1.16-2.38,1.42-3.01.15-.37.48-.59.9-.59.55,0,.96.44.96.96s-.37.92-.87.96Zm5.67.17c-.76,1-1.61,1.72-2.09,2.07,1.24.74,2.07,1.59,2.33,2.47.24.57-.2,1.22-.83,1.22-.59,0-.96-.48-.9-1.03-.46-.96-1.13-1.96-1.59-2.38-.28-.26-.04-.74.35-.63.68-.94,1.33-2.09,1.83-3.12.15-.31.46-.55.87-.55.52,0,.98.44.98.96s-.44.96-.96.98Z"/>
</svg>