<?xml version="1.0" encoding="UTF-8"?>
<svg id="_レイヤー_1" data-name="レイヤー 1" xmlns="http://www.w3.org/2000/svg" viewBox="0 0 37.43 37.59">
  <defs>
    <style>
      .cls-1 {
        fill: #624e23;
      }
    </style>
  </defs>
  <g>
    <path class="cls-1" d="m0,37.45c.05-.42.06-.81.06-1.57v-6.58c0-.79-.01-1.1-.06-1.49h1.77c-.05.42-.07.68-.07,1.49v1.69c1.69.59,3.18,1.28,4.95,2.33l-.89,1.6c-.97-.68-2.39-1.47-3.64-2.02-.21-.09-.25-.11-.41-.2v3.2c0,.71.02,1.12.07,1.54H0Z"/>
    <path class="cls-1" d="m9.55,30.34c.48.91.7,1.47,1.08,2.72l-1.46.46c-.29-1.21-.5-1.79-.98-2.78l1.36-.4Zm6.3.13c-.06.19-.08.22-.16.62-.32,1.5-.78,2.72-1.43,3.68-.77,1.13-1.74,1.92-3.46,2.81-.34-.59-.49-.79-1.03-1.32.83-.32,1.29-.58,1.92-1.02,1.26-.93,1.98-2.08,2.43-3.85.13-.54.19-.91.2-1.28l1.54.37Zm-3.94-.59c.58,1.12.78,1.62,1.06,2.63l-1.43.44c-.21-.88-.55-1.83-.98-2.7l1.35-.38Z"/>
    <path class="cls-1" d="m23.89,28.7c.13,0,.26,0,.47-.02.04-.64.57-1.14,1.2-1.14.67,0,1.21.56,1.21,1.23s-.53,1.23-1.2,1.23h-.04l-.04.16c-.46,1.87-1.15,3.31-2.15,4.5-1,1.2-2.23,2.07-4.1,2.92-.36-.71-.53-.96-1.15-1.59.95-.3,1.54-.59,2.34-1.1,1.68-1.09,2.74-2.61,3.24-4.63h-4.77c-.89,0-1.24.01-1.69.07v-1.7c.47.07.81.08,1.71.08h4.98Zm1.13.07c0,.3.24.54.53.54s.53-.24.53-.54-.24-.54-.53-.54-.53.25-.53.54Z"/>
    <path class="cls-1" d="m27.16,33.14c.49-.36.95-.89,2.46-2.84.54-.7,1.03-1.01,1.6-1.01.35,0,.69.13,1,.39.16.13.4.39.71.76,1.12,1.34,1.99,2.29,3.16,3.39.63.61.96.88,1.35,1.1l-.8,1.87c-.12-.13-.16-.18-.36-.36-.9-.82-2.11-2.08-3.17-3.27q-.24-.28-.98-1.16-.12-.14-.46-.54c-.2-.22-.3-.29-.46-.29q-.19,0-1.07,1.21c-.51.69-1.11,1.43-1.68,2.08-.13.14-.16.19-.27.33l-1.03-1.66Z"/>
  </g>
  <polygon class="cls-1" points="33.71 14.99 18.72 0 3.72 14.99 9.66 14.99 9.66 25.11 27.77 25.11 27.77 14.99 33.71 14.99"/>
</svg>