<svg id="レイヤー_1" data-name="レイヤー 1" xmlns="http://www.w3.org/2000/svg" viewBox="0 0 170.33 33.76"><defs><style>.cls-1{stroke:#000;}.cls-1,.cls-2{stroke-linecap:round;stroke-linejoin:round;stroke-width:0.25px;}.cls-2{fill:#e6a81b;stroke:#e6a81b;}</style></defs><path class="cls-1" d="M600.91,377.13h-3.24v11.51c1.27-.43,2.58-.87,3.78-1.35a.57.57,0,0,1,.51,1,68.66,68.66,0,0,1-8.63,4.48,1.58,1.58,0,1,1-1.82-2.18c1-.29,2.81-.88,3.68-1.17V377.13h-4.63a.78.78,0,0,1-.8-.76.81.81,0,0,1,.8-.8h4.59v-8.89a1.27,1.27,0,0,1,1.28-1.24,1.23,1.23,0,0,1,1.24,1.24v8.92h2a1.26,1.26,0,0,1,1.24-1,1.28,1.28,0,0,1,0,2.55Zm20,19.12H608.23c-3.21,0-4.37-1.16-4.37-4.11l0-11.33-3.57,1.57a.76.76,0,0,1-1-.48.93.93,0,0,1,.4-1.16l4.15-1.79v-8.77A1.22,1.22,0,0,1,605,369a1.25,1.25,0,0,1,1.24,1.21v7.75l3.79-1.67V365.73a1.25,1.25,0,0,1,1.24-1.2,1.22,1.22,0,0,1,1.2,1.2v9.44l4.88-2.19a1.23,1.23,0,0,1,2.4.4v3.06c0,7.47.11,11.73-3.24,12.75a1.44,1.44,0,0,1-1.67-2.15l-.66,0a.59.59,0,0,1-.54-.65.54.54,0,0,1,.61-.51l2.34.18c.76-1.49.72-4.81.72-9.54v-1.64L612.49,377v12.63a1.22,1.22,0,0,1-1.2,1.21,1.25,1.25,0,0,1-1.24-1.21V378l-3.79,1.68v12.42c0,1.38.55,1.71,2,1.71h11.07v-1.93a.59.59,0,0,1,1.17,0v1.38a1.48,1.48,0,0,1,1.89,1.42A1.52,1.52,0,0,1,620.87,396.25Z" transform="translate(-589.64 -364.15)"/><path class="cls-1" d="M659.49,395.78l-1,0a1.29,1.29,0,0,1-1.57,1.75,18.71,18.71,0,0,1-13.77-10h-2.55v5.83l4.81-1.13a.58.58,0,0,1,.37,1.09c-2.41,1-6.71,2.55-9.4,3.43a1.51,1.51,0,1,1-1.75-2l3.64-.83v-6.38h-4a12.08,12.08,0,0,1-5.94,9,.59.59,0,0,1-.69-.95c2.73-2.77,4.48-5.39,4.48-13.07v-1.75a1.34,1.34,0,0,1,2.48-.62h21.09a1.27,1.27,0,1,1,1.23,1.49H634.58c0,1.5,0,3-.11,4.48h22a1.27,1.27,0,0,1,1.24-1.13,1.3,1.3,0,0,1,1.28,1.28,1.22,1.22,0,0,1-1.24,1.27H644.63a19.83,19.83,0,0,0,3.31,3.21l2.63-2.33a1.44,1.44,0,1,1,.43,2.33l-2.07.84a20.38,20.38,0,0,0,10.6,3.06.61.61,0,0,1,.58.61A.58.58,0,0,1,659.49,395.78Zm-2.22-22.91L655.7,374a.59.59,0,0,1-.87-.73l.87-2.11H644.92V378a1.23,1.23,0,0,1-1.24,1.24,1.2,1.2,0,0,1-1.2-1.24v-6.81h-10.2a5.13,5.13,0,0,1-1.93,3.79,1.52,1.52,0,0,1-2.07-.48,1.49,1.49,0,0,1,.94-2.26,6.35,6.35,0,0,0,1.93-2.65.59.59,0,0,1,1.13.11h10.16v-2h-9.61a.73.73,0,0,1-.73-.73.77.77,0,0,1,.73-.77h21.34a1.25,1.25,0,0,1,1.24-1.05,1.28,1.28,0,1,1,0,2.55H644.92v2h11.66a1.8,1.8,0,0,1,2.66.8A1.78,1.78,0,0,1,657.27,372.87ZM639,377.79h-4.95a.7.7,0,0,1-.73-.69.73.73,0,0,1,.73-.73h4a1.11,1.11,0,0,1,1.06-.77,1.09,1.09,0,0,1,1.06,1.09A1.12,1.12,0,0,1,639,377.79Zm0-3.1h-4.95a.67.67,0,0,1-.69-.69.7.7,0,0,1,.69-.73h4.11a1.09,1.09,0,0,1,1-.76,1.08,1.08,0,0,1,1.1,1.09C640.3,374.36,639.68,374.69,639,374.69Zm13.37,9.91H637.75a.7.7,0,0,1-.73-.69.71.71,0,0,1,.73-.7H651.3a1.15,1.15,0,0,1,2.25.3A1.07,1.07,0,0,1,652.39,384.6Zm-.77-10h-4.48a.67.67,0,0,1-.69-.69.68.68,0,0,1,.69-.7h3.57a1.15,1.15,0,0,1,1.06-.8,1.1,1.1,0,0,1,1.06,1.1A1.15,1.15,0,0,1,651.62,374.62Zm1.06,3.17h-5.32a.67.67,0,0,1-.69-.69.69.69,0,0,1,.69-.73h4.26a1.15,1.15,0,0,1,1.06-.77,1.07,1.07,0,0,1,1.09,1.09A1.09,1.09,0,0,1,652.68,377.79Z" transform="translate(-589.64 -364.15)"/><path class="cls-1" d="M680.79,394.94a50.74,50.74,0,0,1-5.08.29c-5,.09-7.52-1.25-7.59-4-.06-3.36,3.55-6.46,7-8.54a3.06,3.06,0,0,1-1.38-.74c-1-1-1.28-2.5-1.31-4.54-.06-3.91-1.12-5.09-2.85-5.7a.61.61,0,0,1-.35-.67.57.57,0,0,1,.71-.42c3.8.93,4,2.63,4.06,6.75,0,1.92.1,3.24.77,3.84a2.88,2.88,0,0,0,2.05.52,23.86,23.86,0,0,1,2.94-1.35,1,1,0,0,1,.67-.25,1,1,0,1,1,0,2c-4.19,1.38-10.81,5-10.75,8.9,0,1.5,1.06,2.52,5.95,2.43a41.12,41.12,0,0,0,4.58-.26,1.13,1.13,0,0,1,.48-.13.93.93,0,0,1,.06,1.86Z" transform="translate(-589.64 -364.15)"/><path class="cls-1" d="M692.48,378.59a1.41,1.41,0,0,1-1.61-1.17,17,17,0,0,0-2.29-2.66.6.6,0,0,1,.51-1c2.62.44,4.41,1.94,4.59,3.25A1.43,1.43,0,0,1,692.48,378.59Zm.29,10.6a10,10,0,0,1,1.67,5.86,1.51,1.51,0,0,1-1.34,1.64,1.48,1.48,0,0,1-1.46-2.15c0-3.79-1.09-5.68-2.33-6.41a.58.58,0,0,1,.4-1.09,4.68,4.68,0,0,1,1.2.51c1.17-2.37,3.06-6.41,4.52-9.73a.58.58,0,0,1,1.09.4Zm1.42-18.8a1.4,1.4,0,0,1-1.17-1.31,31.59,31.59,0,0,0-1.85-2.87.6.6,0,0,1,.65-.95c2.55.73,4.23,2.8,4,4A1.4,1.4,0,0,1,694.19,370.39Zm26,4.78h-4.34v4.91a1.23,1.23,0,0,1-2.25.69H708.1v3.5h7.25a1.33,1.33,0,0,1,1.31-1.09,1.3,1.3,0,0,1,1.31,1.31,1.34,1.34,0,0,1-1.38,1.31H708.1v3.61h9.62a1.33,1.33,0,0,1,1.31-1.1,1.33,1.33,0,0,1,0,2.66H708.14v5.58a1.28,1.28,0,0,1-2.55,0V391h-9.4a.8.8,0,0,1,0-1.6h9.43V385.8h-7.5a.74.74,0,0,1-.76-.76.78.78,0,0,1,.76-.81h7.5v-3.46h-6.84A.74.74,0,0,1,698,380a.78.78,0,0,1,.77-.8h6.84v-4H697.5a.73.73,0,0,1-.73-.77.75.75,0,0,1,.73-.8h8.12V370H699a.74.74,0,0,1-.77-.76.78.78,0,0,1,.77-.8h6.59v-2.92a1.26,1.26,0,0,1,1.27-1.24,1.23,1.23,0,0,1,1.24,1.24v2.95h5.54a1.21,1.21,0,0,1,2.18.73v4.45h3a1.37,1.37,0,0,1,1.38-1.24,1.35,1.35,0,0,1,1.35,1.38A1.4,1.4,0,0,1,720.16,375.17Zm-12.06-1.53h5.28V370H708.1Zm0,5.6h5.28v-4.07H708.1Z" transform="translate(-589.64 -364.15)"/><path class="cls-2" d="M730.92,377.82a1.43,1.43,0,0,1-1.71-1.38,25.4,25.4,0,0,0-2.37-2.26c-.44-.36-.29-1.16.47-1,2.81.51,4.59,1.71,4.74,3A1.47,1.47,0,0,1,730.92,377.82Zm.11,11.73c1.34,2,2.14,4.7,1.78,6.38a1.53,1.53,0,0,1-1.38,1.27,1.58,1.58,0,0,1-1.42-2.48c-.11-3.09-1.1-5.53-2.26-6.55-.58-.51-.11-1.28.54-1a3.84,3.84,0,0,1,1,.58c1.1-2,4.92-9.94,5.72-11.73a.59.59,0,0,1,1.1.44C735.32,378.7,731.94,387.51,731,389.55Zm3.06-19.27a1.47,1.47,0,0,1-1.53-1.38c-.51-.62-1.86-2-2.41-2.51a.59.59,0,0,1,.51-1c2.55.36,4.81,1.67,4.85,3.38A1.45,1.45,0,0,1,734.09,370.28Zm25.09,24.34c-.36,0-.69-.08-1.06-.15.51,1.13-.43,2.4-2,1.89a18.37,18.37,0,0,1-7.83-5A22.8,22.8,0,0,1,738,397.49a.6.6,0,0,1-.4-1.13,26.27,26.27,0,0,0,9.18-6.84,19.34,19.34,0,0,1-3.57-8.67h-2c-.29,5.61-1.49,11.11-5.9,15a.58.58,0,0,1-.87-.76c3.17-4.23,4.26-9.07,4.26-17v-7.25a1.34,1.34,0,0,1,2.55-.72H746v-4.56a1.26,1.26,0,0,1,1.27-1.24,1.23,1.23,0,0,1,1.24,1.24v4.56h6.23a1.71,1.71,0,0,1,2.92,1.16,1.74,1.74,0,0,1-1.94,1.79l-2.33,1.53a.59.59,0,0,1-.83-.81l1.2-2.14h-5.25v7.72h4.37a1.62,1.62,0,0,1,2.74.62,1.58,1.58,0,0,1-1.06,1.93,31,31,0,0,1-4.7,7.79,17.69,17.69,0,0,0,9.51,3.79.59.59,0,0,1-.15,1.17Zm-18-15.3H746V371.6h-4.85Zm3.28,1.53a17.34,17.34,0,0,0,3.64,7.06,31.76,31.76,0,0,0,4-7.06Z" transform="translate(-589.64 -364.15)"/></svg>