<svg id="レイヤー_1" data-name="レイヤー 1" xmlns="http://www.w3.org/2000/svg" viewBox="0 0 134.55 33.5"><defs><style>.cls-1{stroke:#000;}.cls-1,.cls-2{stroke-linecap:round;stroke-linejoin:round;stroke-width:0.25px;}.cls-2{fill:#e6a81b;stroke:#e6a81b;}</style></defs><path class="cls-1" d="M615.16,382.67a5.07,5.07,0,0,0-.66.65.75.75,0,0,1-1,.09.77.77,0,0,1-.09-1,2.68,2.68,0,0,0,.37-.49c-1-.78-5.29-1.11-6.6-1.19a.67.67,0,0,1-.65-.66.7.7,0,0,1,.65-.78c2.67-.16,7-.16,8.41.95a1.48,1.48,0,0,1,.53,1C616.1,381.81,615.65,382.22,615.16,382.67Zm3.4-7.71a1.3,1.3,0,0,1-.94-.45,3.33,3.33,0,0,0-2.91.16.73.73,0,0,1-1-.24.76.76,0,0,1,.29-1c.2-.12.45-.24.7-.37a28.23,28.23,0,0,0-5.05-1,.71.71,0,0,1-.65-.7.73.73,0,0,1,.69-.78c3.16-.16,7.38.49,9.47,2.22a1.11,1.11,0,0,1,.58,1A1.19,1.19,0,0,1,618.56,375Zm-4,18.65-.53.33c-1,.62-2,1.27-3.61-.41-1-1-.78-3.36-.69-3.85a.72.72,0,0,1,.77-.62.74.74,0,0,1,.66.66,4.38,4.38,0,0,0,.53,1.89c.37.36.7.57,2.13-.25a121.31,121.31,0,0,0,20.18-15,.76.76,0,0,1,1,0,.69.69,0,0,1,0,1C628.28,384.64,618.11,391.44,614.58,393.61Z" transform="translate(-606.38 -366.51)"/><path class="cls-2" d="M674.37,378.36a1.24,1.24,0,0,1-.41-.08c-2.05-.78-5.33-.66-7.5-.57-1.44,0-3.41.2-5.5.37-.29,6.39-1.51,14.67-7,20.25a.74.74,0,0,1-1,0,.72.72,0,0,1-.13-1c4.27-5.25,5.46-13.25,5.79-19-3.74.37-7.47.86-9.15,1.23-3.4.7-5-.94-5.61-2a.72.72,0,0,1,.24-1,.75.75,0,0,1,.78,0,6.35,6.35,0,0,0,4,.9c3.44-.45,6.85-.9,9.8-1.19,0-1.35,0-2.7.08-4.06a5.26,5.26,0,0,0-.45-2.79,4.6,4.6,0,0,0-1.64-1.23.75.75,0,0,1-.37-1,.71.71,0,0,1,.74-.41,5.14,5.14,0,0,1,3.11,1.39c1,1,.91,2.55.86,3.78s0,2.7,0,4.06c2-.21,4.06-.41,6.11-.5a18.44,18.44,0,0,1,6.89.5,1.17,1.17,0,0,1,1.48,1.14A1.19,1.19,0,0,1,674.37,378.36Z" transform="translate(-606.38 -366.51)"/><path class="cls-1" d="M689.43,386.56a1.11,1.11,0,0,1-1.15-1.1,1.08,1.08,0,0,1,.21-.66,89.75,89.75,0,0,0-.25-9.84c-.29-3.08-1.27-4.31-1.8-4.47a.74.74,0,0,1-.66-.66.79.79,0,0,1,.66-.77,2.74,2.74,0,0,1,1.76.61c1.11.9,1.8,2.62,2,5.13a98.34,98.34,0,0,1,.33,10.57A1.09,1.09,0,0,1,689.43,386.56Zm10.45-15.78c0,.82-.12,1.88-.12,3,0,9.27-.7,18.9-8.9,25.91a.72.72,0,0,1-.94-1.1c7.3-7.18,7.71-17.31,7.71-22.88v-4.35a11.08,11.08,0,0,0,0-1.23,2.16,2.16,0,0,0-1.07-1.72,4.06,4.06,0,0,0-1.35.41.72.72,0,0,1-.94-.25.74.74,0,0,1,.24-1,5.77,5.77,0,0,1,2.42-.94c1,0,3.16,1.51,3.08,2.78Z" transform="translate(-606.38 -366.51)"/><path class="cls-1" d="M739.33,376.6a13.93,13.93,0,0,0-4.35-.29c-1.11.17-2.42.41-3.81.62l.12,7.62,0,2.59c0,3.65.25,7.38-1.19,9.3a1.74,1.74,0,0,1-1.35.82c-.7,0-1.11-.65-1.48-1.31a7,7,0,0,0-.94-1.27c-1.23-1.19-2.54-2.25-3.85-3.36a.73.73,0,0,1-.13-1,.78.78,0,0,1,1-.08c.45.33,3.4,2.71,4.14,3.24.37.25.9.7,1,.57.7-1,.78-3.23.78-5.69v-3.57c0-1.31,0-2.95-.08-4.68a43.87,43.87,0,0,1-14.84,13.49.71.71,0,0,1-1-.28.73.73,0,0,1,.25-1,49.1,49.1,0,0,0,14.51-14.88c-3.85.7-7.66,1.44-9.47,1.8-2.46.54-3.56-.12-4.55-1.31a.74.74,0,0,1,.94-1.1c.66.41,1.36.65,3.41.28,3.52-.65,7.05-1.31,10.58-1.92,0-1.11-.09-2.26-.09-3.37a5.12,5.12,0,0,0-.53-2.78c-.37-.5-.9-.82-2.21-.78a.71.71,0,0,1-.7-.45.77.77,0,0,1,.41-.95,4.9,4.9,0,0,1,4,.66c1.47,1.06,1.39,2.75,1.19,4.1a20.63,20.63,0,0,0-.09,3.24l3.65-.62a16.07,16.07,0,0,1,4.56.08,1.17,1.17,0,1,1,0,2.26Z" transform="translate(-606.38 -366.51)"/></svg>