<svg id="レイヤー_1" data-name="レイヤー 1" xmlns="http://www.w3.org/2000/svg" viewBox="0 0 20.95 104.18"><defs><style>.cls-1{stroke:#000;stroke-width:0.14px;}.cls-1,.cls-2{stroke-linecap:round;stroke-linejoin:round;}.cls-2{fill:#e6a81b;stroke:#e6a81b;stroke-width:0.29px;}</style></defs><path class="cls-1" d="M691.75,335.31a.94.94,0,0,1-1.2-.79,14.52,14.52,0,0,0-1.5-1.65,111.47,111.47,0,0,1-13.31,1.41,1.05,1.05,0,1,1-.88-1.65c.88,0,2.67,0,3.43,0,.85-1.5,2.49-4.66,3.25-6.37a1.08,1.08,0,1,1,1.24,1.53,41.83,41.83,0,0,1-3.55,4.82c2.75-.06,6.28-.15,9.07-.37-.61-.54-1.63-1.35-2.07-1.66a.35.35,0,0,1,.33-.61c3,1.14,5.41,2.86,5.82,4.21A.91.91,0,0,1,691.75,335.31Zm-2.2,9.43a.83.83,0,0,1-1.66,0v-.29h-9.82V345a.84.84,0,0,1-.83.81.86.86,0,0,1-.85-.81v-8a.8.8,0,0,1,1.49-.39H688a.81.81,0,0,1,1.51.39Zm-11.48-1.2h9.82v-6h-9.82Z" transform="translate(-672.52 -325.55)"/><path class="cls-2" d="M691.64,366.6c-4.06-3.45-3.9-9.23-3.9-13v-4.19H677.18v2c0,5.78.15,12.29-3.95,15.56a.35.35,0,0,1-.5-.48c2.94-4.34,2.9-8.68,2.9-15.27v-2.34a.85.85,0,0,1,1.59-.35h10.61a.78.78,0,0,1,1.46.37v4.74c0,3.38,0,7.92,2.57,11l.39-.77a.34.34,0,0,1,.46-.15.36.36,0,0,1,.16.48l-.35.7a1,1,0,1,1-.88,1.72Zm-4.77-1.26a.91.91,0,0,1-1-1c-.19-.3-.39-.63-.58-.92a39.55,39.55,0,0,1-5.76,1.79,1,1,0,0,1-1.44.35,1,1,0,0,1,.37-1.79c.78-.11,2-.28,3-.43v-3.12h-1.63a.71.71,0,0,1-.7.74.7.7,0,0,1-.7-.7v-5.3a.71.71,0,0,1,1.33-.33h1.7v-2.29c-1,.11-2.05.2-3.2.28a.35.35,0,1,1-.09-.69c1.83-.33,4.08-.81,5.82-1.27a.91.91,0,0,1,1.31-.41c.75.45.53,1.54-.5,1.68-.52.06-1.5.21-1.92.26v2.44h1.77a.71.71,0,0,1,1.33.33v5.15a.7.7,0,0,1-1.4.11h-1.7v2.92l2-.3-.57-.77a.36.36,0,0,1,.44-.54c2,1,3,2.05,2.9,3A.87.87,0,0,1,686.87,365.34Zm-7-6h1.63v-3.89h-1.63Zm3,0h1.68v-3.89h-1.68Z" transform="translate(-672.52 -325.55)"/><path class="cls-1" d="M686.63,385c-.5.08-1.85.15-3,.17-3,.06-4.47-.74-4.51-2.35,0-2,2.11-3.84,4.16-5.08a1.71,1.71,0,0,1-.81-.43,3.63,3.63,0,0,1-.78-2.7c0-2.32-.67-3-1.69-3.38a.36.36,0,0,1-.21-.4.34.34,0,0,1,.42-.25c2.26.55,2.35,1.56,2.41,4,0,1.14.06,1.92.46,2.28a1.65,1.65,0,0,0,1.21.3,14,14,0,0,1,1.75-.79.59.59,0,0,1,.4-.16.61.61,0,0,1,.61.59.59.59,0,0,1-.59.59c-2.49.82-6.42,3-6.39,5.28,0,.9.63,1.5,3.54,1.45a24.07,24.07,0,0,0,2.71-.16.77.77,0,0,1,.29-.07.55.55,0,0,1,0,1.1Z" transform="translate(-672.52 -325.55)"/><path class="cls-1" d="M692.52,406.8a7.31,7.31,0,0,1-.75-.28.89.89,0,0,1-1.37.94,15.87,15.87,0,0,1-7.53-11.15c-.74,5.67-3.71,9.95-9.08,11.87a.38.38,0,0,1-.32-.68,15.17,15.17,0,0,0,7.83-12.13h-7.75a.5.5,0,0,1-.5-.48.55.55,0,0,1,.5-.53h7.84c.15-1.63.17-3.25.17-5a1.07,1.07,0,0,1,1.14-1.11,1,1,0,0,1,.59,1.79c0,1.39-.07,2.85-.18,4.32h7.68a.9.9,0,0,1,.88-.75.86.86,0,0,1,.85.88.84.84,0,0,1-.85.85h-8.19a14.92,14.92,0,0,0,9.28,10.78.36.36,0,0,1,.19.46A.33.33,0,0,1,692.52,406.8Z" transform="translate(-672.52 -325.55)"/><path class="cls-1" d="M691.34,412.53h-7.62v2.69h6a.72.72,0,0,1,1.35.35v13.09a.95.95,0,0,1-1.89,0,.77.77,0,0,1,.08-.37h-1a.38.38,0,0,1-.35-.35.38.38,0,0,1,.35-.37h1.35V416.13h-5.89v12.59a.71.71,0,0,1-1.42,0V416.13h-5.89v12.79a.72.72,0,1,1-1.44,0V415.65a.73.73,0,0,1,.72-.72.69.69,0,0,1,.57.29h6v-2.69h-8.4a.48.48,0,1,1,0-1h16.52a.91.91,0,0,1,1.81.05A.91.91,0,0,1,691.34,412.53Zm-11.68,13.23a.81.81,0,0,1-.74-.81c-.28-.48-1-1.57-1.2-1.88s0-.67.44-.52c1,.41,2.2,1.37,2.36,2.25A.81.81,0,0,1,679.66,425.76Zm.53-4.8a.81.81,0,0,1-.83-.72c-.26-.38-1-1.34-1.24-1.6a.34.34,0,0,1,.37-.56c1,.28,2.22,1,2.44,1.81A.83.83,0,0,1,680.19,421Zm7,4.45a.84.84,0,0,1-.87-.7c-.33-.39-1.14-1.29-1.38-1.53a.34.34,0,0,1,.33-.59c1.07.22,2.38.9,2.62,1.75A.82.82,0,0,1,687.17,425.41Zm.13-4.13a.76.76,0,0,1-.83-.52,16.59,16.59,0,0,0-1.44-1.7c-.24-.27-.08-.66.31-.59a3.59,3.59,0,0,1,2.66,1.74A.83.83,0,0,1,687.3,421.28Z" transform="translate(-672.52 -325.55)"/></svg>