<svg id="レイヤー_1" data-name="レイヤー 1" xmlns="http://www.w3.org/2000/svg" viewBox="0 0 17.31 81.82"><defs><style>.cls-1{stroke:#000;stroke-width:0.14px;}.cls-1,.cls-2{stroke-linecap:round;stroke-linejoin:round;}.cls-2{fill:#e6a81b;stroke:#e6a81b;stroke-width:0.29px;}</style></defs><path class="cls-1" d="M680.71,342.54a2.39,2.39,0,0,0-.35.36.41.41,0,0,1-.55,0,.42.42,0,0,1,0-.55,2.61,2.61,0,0,0,.2-.26c-.53-.42-2.84-.6-3.55-.64a.37.37,0,0,1-.35-.35.38.38,0,0,1,.35-.42c1.43-.09,3.77-.09,4.51.5a.79.79,0,0,1,.29.53C681.22,342.08,681,342.3,680.71,342.54Zm1.83-4.13a.71.71,0,0,1-.51-.24,1.75,1.75,0,0,0-1.56.08.38.38,0,0,1-.53-.13.4.4,0,0,1,.16-.55l.37-.2a16,16,0,0,0-2.71-.55.38.38,0,0,1-.35-.37.4.4,0,0,1,.38-.42c1.69-.09,4,.27,5.08,1.19a.6.6,0,0,1,.31.55A.64.64,0,0,1,682.54,338.41Zm-2.13,10-.29.18a1.27,1.27,0,0,1-1.94-.22,2.93,2.93,0,0,1-.37-2.07.38.38,0,0,1,.42-.33.39.39,0,0,1,.35.35,2.15,2.15,0,0,0,.29,1c.19.2.37.31,1.14-.13a65.3,65.3,0,0,0,10.82-8,.39.39,0,0,1,.53,0,.36.36,0,0,1,0,.55A60.93,60.93,0,0,1,680.41,348.42Z" transform="translate(-674.73 -335.95)"/><path class="cls-2" d="M691.28,361.81a.78.78,0,0,1-.23-.05,11.76,11.76,0,0,0-4-.31c-.77,0-1.83.11-2.95.2-.15,3.43-.81,7.88-3.74,10.87a.4.4,0,0,1-.53,0,.38.38,0,0,1-.06-.55c2.28-2.81,2.92-7.1,3.1-10.21-2,.2-4,.47-4.91.66a2.59,2.59,0,0,1-3-1.07.39.39,0,0,1,.13-.53.4.4,0,0,1,.42,0,3.41,3.41,0,0,0,2.15.48c1.85-.24,3.68-.48,5.26-.64,0-.72,0-1.45.05-2.17a2.76,2.76,0,0,0-.25-1.5,2.4,2.4,0,0,0-.88-.66.41.41,0,0,1-.19-.53.38.38,0,0,1,.39-.22,2.79,2.79,0,0,1,1.67.75,2.66,2.66,0,0,1,.47,2c0,.73,0,1.46,0,2.18,1.08-.11,2.18-.22,3.28-.26a9.94,9.94,0,0,1,3.7.26.64.64,0,1,1,.18,1.26Z" transform="translate(-674.73 -335.95)"/><path class="cls-1" d="M680.71,389.3a.59.59,0,0,1-.61-.59.58.58,0,0,1,.11-.35,50.58,50.58,0,0,0-.13-5.28c-.16-1.65-.69-2.31-1-2.4a.41.41,0,0,1-.36-.35.43.43,0,0,1,.36-.42,1.49,1.49,0,0,1,.94.33,3.92,3.92,0,0,1,1.1,2.75,53.49,53.49,0,0,1,.18,5.68A.58.58,0,0,1,680.71,389.3Zm5.61-8.47c0,.44-.06,1-.06,1.63,0,5-.38,10.14-4.78,13.91a.39.39,0,1,1-.5-.6c3.91-3.85,4.13-9.28,4.13-12.27v-2.34a6.44,6.44,0,0,0,0-.66,1.16,1.16,0,0,0-.57-.92,2.12,2.12,0,0,0-.73.22.38.38,0,0,1-.5-.13.4.4,0,0,1,.13-.55,3,3,0,0,1,1.3-.51c.55,0,1.69.81,1.65,1.5Z" transform="translate(-674.73 -335.95)"/><path class="cls-1" d="M689.73,406.61a7.15,7.15,0,0,0-2.33-.15c-.59.08-1.3.21-2,.33l.06,4.09,0,1.38c0,2,.14,4-.63,5a1,1,0,0,1-.73.44c-.37,0-.59-.35-.79-.71a4.31,4.31,0,0,0-.51-.68c-.66-.64-1.36-1.21-2.07-1.8a.39.39,0,0,1-.06-.55.4.4,0,0,1,.55,0c.24.18,1.82,1.46,2.22,1.74.2.13.48.38.55.31a6.59,6.59,0,0,0,.42-3.06V411c0-.71,0-1.59,0-2.51a23.49,23.49,0,0,1-8,7.24.39.39,0,0,1-.4-.66,26.36,26.36,0,0,0,7.79-8c-2.07.38-4.11.77-5.08,1a2.11,2.11,0,0,1-2.44-.71.4.4,0,0,1,.5-.59c.35.22.73.35,1.83.15,1.89-.35,3.78-.7,5.68-1,0-.59,0-1.21,0-1.8a2.89,2.89,0,0,0-.28-1.5c-.2-.26-.49-.44-1.19-.42a.39.39,0,0,1-.38-.24.43.43,0,0,1,.22-.51,2.62,2.62,0,0,1,2.16.36,2.09,2.09,0,0,1,.64,2.2,10.87,10.87,0,0,0,0,1.73l2-.33a8.31,8.31,0,0,1,2.44,0,.63.63,0,1,1,0,1.21Z" transform="translate(-674.73 -335.95)"/></svg>