<svg id="レイヤー_1" data-name="レイヤー 1" xmlns="http://www.w3.org/2000/svg" viewBox="0 0 19.65 84.55"><defs><style>.cls-1{stroke:#000;stroke-width:0.14px;}.cls-1,.cls-2{stroke-linecap:round;stroke-linejoin:round;}.cls-2{fill:#e6a81b;stroke:#e6a81b;stroke-width:0.29px;}</style></defs><path class="cls-1" d="M692.47,352.88c-.3-.09-.61-.18-.91-.29a.9.9,0,0,1-1.25,1c-3.49-1.55-6.35-5.13-7.42-11.81,0,0-.06.72-.1,1.07-.81,6.27-3.91,10-8.89,11.52-.48.16-.67-.43-.26-.65,5.59-2.9,8.21-7.62,7.92-16.5l0-.69a1.06,1.06,0,0,1,.44-.9,1,1,0,0,1,1.39.24,1,1,0,0,1-.17,1.33c.37,6.85,3.12,13,9.47,15a.36.36,0,0,1,.24.44A.35.35,0,0,1,692.47,352.88Zm-16.65-7.25a.93.93,0,1,1-1-1.5,17.64,17.64,0,0,0,1.55-3.6.35.35,0,0,1,.7.08C677.18,342.73,676.7,344.76,675.82,345.63Zm14.27-4.34a21.5,21.5,0,0,1-3.55,3.32c-.35.26-.79-.11-.5-.48.78-1,2.29-3.12,3.07-4.39a1,1,0,0,1,1.88.39A1,1,0,0,1,690.09,341.29Z" transform="translate(-673.34 -335.4)"/><path class="cls-1" d="M691.29,375.77a.8.8,0,0,1-.8.78.78.78,0,0,1-.79-.78v-.68H676.44v.68a.78.78,0,0,1-.79.78.8.8,0,0,1-.81-.78V361.91a.83.83,0,0,1,.81-.81.81.81,0,0,1,.79.81v12.22h5.67V357.94a.79.79,0,0,1,.81-.78.77.77,0,0,1,.78.78v16.19h6V361.89a.79.79,0,0,1,.79-.79.8.8,0,0,1,.8.79Z" transform="translate(-673.34 -335.4)"/><path class="cls-2" d="M679.14,391.52a.72.72,0,1,1-1.44,0v-.22h-2.62v1.64a.74.74,0,0,1-1.48,0V381.48a.74.74,0,0,1,1.4-.33h2.79a.71.71,0,0,1,1.35.33Zm-4.06-1.09h2.62V382h-2.62Zm8.21,6.3a15.63,15.63,0,0,1-4.8,1.94c-.57.11-.66-.48-.33-.65a33.76,33.76,0,0,0,4.45-2.79c.57-.48,1.46-.46,1.66.37A.92.92,0,0,1,683.29,396.73Zm8.7-12h-2.42v.77a.73.73,0,0,1-.72.72.75.75,0,0,1-.74-.72v-.77h-4.19v.77a.7.7,0,0,1-.72.69.69.69,0,0,1-.7-.69v-.77h-2.33a.46.46,0,1,1,0-.91h2.33v-1a.71.71,0,0,1,.7-.72.73.73,0,0,1,.72.72v1.05h1.18v-2.29h-4.41a.46.46,0,1,1,0-.92h4.36v-1.59a.73.73,0,0,1,.75-.74.72.72,0,0,1,.72.74v1.61h2.66a.84.84,0,0,1,.81-.7.78.78,0,0,1,.78.79.8.8,0,0,1-.78.81h-3.47v2.29h1.59v-1.05a.77.77,0,0,1,.74-.74.75.75,0,0,1,.72.74v1h1.64a.79.79,0,0,1,.78-.68.82.82,0,0,1,.81.81A.8.8,0,0,1,692,384.75Zm-1.26,9.58a.76.76,0,0,1-1.49.2h-6.91a.75.75,0,0,1-1.47-.2v-7.16a.75.75,0,0,1,1.34-.43h7.15a.76.76,0,0,1,1.38.43Zm-8.38-5.28h6.85v-1.48h-6.85Zm0,2.25h6.85v-1.42h-6.85Zm0,2.38h6.85v-1.53h-6.85Zm9.53,4.91a.89.89,0,0,1-1.17-.7,18.58,18.58,0,0,0-2.73-2.18.35.35,0,0,1,.28-.64c2.07.46,3.82,1.27,4.17,2.36A.94.94,0,0,1,691.88,398.59Z" transform="translate(-673.34 -335.4)"/><path class="cls-1" d="M692.47,418.32c-.3-.09-.61-.17-.91-.28a.9.9,0,0,1-1.25,1c-3.49-1.55-6.35-5.12-7.42-11.8,0,0-.06.72-.1,1.07-.81,6.26-3.91,10-8.89,11.52a.35.35,0,1,1-.26-.66c5.59-2.9,8.21-7.61,7.92-16.49l0-.7a1,1,0,0,1,.44-.89,1,1,0,0,1,1.39.24,1,1,0,0,1-.17,1.33c.37,6.85,3.12,13,9.47,15a.36.36,0,0,1,.24.44A.34.34,0,0,1,692.47,418.32Zm-16.65-7.24a.94.94,0,1,1-1-1.51,17.4,17.4,0,0,0,1.55-3.6.35.35,0,0,1,.7.09C677.18,408.17,676.7,410.2,675.82,411.08Zm14.27-4.34a21.44,21.44,0,0,1-3.55,3.31c-.35.26-.79-.11-.5-.48.78-1,2.29-3.12,3.07-4.38a1,1,0,0,1,1.88.39A1,1,0,0,1,690.09,406.74Z" transform="translate(-673.34 -335.4)"/></svg>