<?xml version="1.0" encoding="UTF-8"?>
<svg id="_レイヤー_1" data-name="レイヤー 1" xmlns="http://www.w3.org/2000/svg" viewBox="0 0 17.34 79.18">
  <defs>
    <style>
      .cls-1 {
        fill: #e6a81b;
        stroke: #e6a81b;
        stroke-width: .29px;
      }

      .cls-1, .cls-2 {
        stroke-linecap: round;
        stroke-linejoin: round;
      }

      .cls-2 {
        stroke: #000;
        stroke-width: .14px;
      }
    </style>
  </defs>
  <path class="cls-2" d="m5.95,6.59c-.13.11-.25.23-.35.36-.16.14-.39.14-.55,0-.14-.16-.14-.39,0-.55.07-.08.14-.17.2-.26-.53-.42-2.84-.6-3.55-.64-.19,0-.34-.16-.35-.35-.02-.21.13-.4.34-.42,0,0,0,0,.01,0,1.43-.09,3.77-.09,4.51.5.16.13.27.32.29.53-.04.37-.26.59-.55.83Zm1.83-4.13c-.2,0-.38-.09-.51-.24-.5-.22-1.08-.19-1.56.08-.18.11-.41.06-.52-.12,0,0,0,0,0-.01-.11-.19-.04-.44.15-.55,0,0,0,0,0,0l.37-.2c-.89-.26-1.79-.45-2.71-.55-.19-.02-.35-.18-.35-.37-.01-.22.16-.41.38-.42,0,0,0,0,0,0C4.72,0,7.03.35,8.11,1.27c.2.11.32.32.31.55,0,.35-.29.64-.64.64h0Zm-2.13,10l-.29.18c-.51.49-1.31.47-1.8-.04-.05-.06-.1-.12-.14-.18-.38-.62-.51-1.36-.37-2.07.03-.21.21-.35.42-.33.19.02.33.16.35.35.01.35.11.7.29,1,.19.2.37.31,1.14-.13,3.87-2.29,7.5-4.97,10.82-8,.15-.14.38-.14.53,0,.15.13.17.36.04.51-.01.02-.03.03-.04.04-3.31,3.3-6.98,6.22-10.95,8.68h0Z"/>
  <path class="cls-1" d="m16.52,24.05c-.08,0-.16-.02-.23-.05-1.31-.33-2.66-.44-4-.31-.77,0-1.83.11-2.95.2-.15,3.43-.81,7.88-3.74,10.87-.15.13-.38.13-.53,0-.17-.13-.2-.36-.07-.53,0,0,0-.01.01-.02,2.28-2.81,2.92-7.1,3.1-10.21-2,.2-4,.47-4.91.66-1.13.37-2.36-.07-3-1.07-.11-.18-.05-.42.13-.53.13-.08.29-.08.42,0,.64.39,1.4.56,2.15.48,1.85-.24,3.68-.48,5.26-.64,0-.72,0-1.45.05-2.17.06-.51-.03-1.03-.25-1.5-.24-.29-.54-.51-.88-.66-.19-.1-.28-.33-.19-.53.07-.15.23-.24.39-.22.63.06,1.21.32,1.67.75.42.58.59,1.3.47,2v2.18c1.08-.11,2.18-.22,3.28-.26,1.24-.15,2.49-.06,3.7.26.34-.09.69.12.78.46.09.34-.12.69-.46.78-.04.01-.09.02-.13.02l-.06.04Z"/>
  <path class="cls-2" d="m5.95,50.91c-.33.01-.6-.24-.61-.57,0,0,0-.01,0-.02,0-.13.04-.25.11-.35.05-1.76,0-3.52-.13-5.28-.16-1.65-.69-2.31-1-2.4-.19-.02-.33-.16-.36-.35,0-.21.15-.39.36-.42.34,0,.67.12.94.33.71.74,1.11,1.72,1.1,2.75.16,1.89.22,3.78.18,5.68.03.32-.21.6-.53.63-.02,0-.04,0-.06,0Zm5.61-8.47c0,.44-.06,1-.06,1.63,0,5-.38,10.14-4.78,13.91-.17.14-.41.12-.55-.05-.14-.17-.12-.41.05-.55,3.91-3.85,4.13-9.28,4.13-12.27v-2.34c.01-.22.01-.44,0-.66-.03-.38-.24-.73-.57-.92-.25.03-.5.1-.73.22-.18.09-.39.04-.5-.13-.12-.19-.06-.43.13-.55.39-.27.83-.44,1.3-.51.55,0,1.69.81,1.65,1.5l-.07.72Z"/>
  <path class="cls-2" d="m14.97,68.02c-.76-.18-1.55-.23-2.33-.15-.59.08-1.3.21-2,.33l.06,4.09v1.38c0,2,.14,4-.63,5-.17.25-.43.41-.73.44-.37,0-.59-.35-.79-.71-.15-.24-.32-.47-.51-.68-.66-.64-1.36-1.21-2.07-1.8-.17-.13-.2-.38-.06-.55,0,0,0,0,0,0,.15-.15.4-.15.55,0,.24.18,1.82,1.46,2.22,1.74.2.13.48.38.55.31.38-.97.52-2.02.42-3.06v-4.46c-2.07,3-4.81,5.48-8,7.24-.2.08-.43,0-.51-.21-.07-.16-.02-.34.11-.45,3.14-2.08,5.79-4.81,7.79-8-2.07.38-4.11.77-5.08,1-.88.33-1.88.04-2.44-.71-.13-.18-.08-.43.1-.56.12-.08.27-.09.4-.03.35.22.73.35,1.83.15,1.89-.35,3.78-.7,5.68-1v-1.8c.04-.52-.05-1.03-.28-1.5-.2-.26-.49-.44-1.19-.42-.16,0-.32-.09-.38-.24-.06-.2.03-.42.22-.51.74-.2,1.53-.07,2.16.36.63.54.88,1.4.64,2.2-.05.58-.05,1.15,0,1.73l2-.33c.81-.12,1.63-.12,2.44,0,.33-.1.68.1.78.43s-.1.68-.43.78c-.11.03-.24.03-.35,0h-.17Z"/>
</svg>