<svg id="レイヤー_1" data-name="レイヤー 1" xmlns="http://www.w3.org/2000/svg" viewBox="0 0 20.36 104.43"><defs><style>.cls-1{stroke:#000;stroke-width:0.14px;}.cls-1,.cls-2{stroke-linecap:round;stroke-linejoin:round;}.cls-2{fill:#e6a81b;stroke:#e6a81b;stroke-width:0.29px;}</style></defs><path class="cls-1" d="M680.08,333.22h-1.94v6.89c.76-.26,1.55-.52,2.27-.81a.35.35,0,0,1,.3.62,42,42,0,0,1-5.17,2.68.95.95,0,1,1-1.09-1.31c.57-.17,1.68-.52,2.2-.7v-7.37h-2.77a.47.47,0,0,1-.48-.46.49.49,0,0,1,.48-.48h2.75V327a.76.76,0,0,1,.77-.74.74.74,0,0,1,.74.74v5.35h1.2a.74.74,0,0,1,.74-.61.77.77,0,0,1,0,1.53Zm12,11.45h-7.58c-1.92,0-2.61-.7-2.61-2.46l0-6.79-2.13.94a.46.46,0,0,1-.59-.29.55.55,0,0,1,.24-.69l2.48-1.07v-5.26a.73.73,0,0,1,.72-.72.75.75,0,0,1,.75.72v4.65l2.27-1v-6.3a.73.73,0,0,1,.74-.72.72.72,0,0,1,.72.72V332l2.92-1.31a.74.74,0,0,1,1.44.24v1.83c0,4.47.07,7-1.94,7.64a.87.87,0,0,1-1-1.29l-.4,0a.36.36,0,0,1-.32-.39.33.33,0,0,1,.37-.31l1.39.11c.46-.89.44-2.88.44-5.72v-1l-2.9,1.29v7.57a.73.73,0,0,1-.72.72.74.74,0,0,1-.74-.72v-6.94l-2.27,1v7.44c0,.83.32,1,1.22,1h6.63v-1.15a.35.35,0,1,1,.7,0v.82a.88.88,0,0,1,1.13.86A.91.91,0,0,1,692,344.67Z" transform="translate(-673.09 -325.59)"/><path class="cls-1" d="M692.36,366.2l-.59,0a.77.77,0,0,1-.93,1.05,11.21,11.21,0,0,1-8.25-6h-1.53v3.49l2.88-.68a.35.35,0,0,1,.22.66c-1.44.61-4,1.53-5.63,2a.9.9,0,1,1-1-1.2l2.18-.5v-3.82h-2.42a7.22,7.22,0,0,1-3.55,5.39.36.36,0,0,1-.42-.57c1.64-1.66,2.69-3.23,2.69-7.83v-1.05a.8.8,0,0,1,1.48-.37h12.63a.76.76,0,1,1,.74.89H677.44a26.84,26.84,0,0,1-.07,2.69h13.2a.77.77,0,0,1,.75-.68.77.77,0,0,1,.76.77.72.72,0,0,1-.74.76h-7.88a12.15,12.15,0,0,0,2,1.92l1.57-1.4a.87.87,0,1,1,.26,1.4l-1.24.5a12,12,0,0,0,6.34,1.83.37.37,0,0,1,.35.38A.34.34,0,0,1,692.36,366.2ZM691,352.48l-.94.67a.35.35,0,0,1-.52-.43l.52-1.27h-6.45v4.08a.73.73,0,0,1-.75.74.72.72,0,0,1-.72-.74v-4.08h-6.11a3,3,0,0,1-1.15,2.27.93.93,0,0,1-1.25-.28.89.89,0,0,1,.57-1.35,4,4,0,0,0,1.16-1.6.35.35,0,0,1,.67.07h6.09v-1.22h-5.76a.44.44,0,0,1-.43-.44.45.45,0,0,1,.43-.46h12.79a.74.74,0,0,1,.74-.63.77.77,0,1,1,0,1.53h-6.26v1.22h7a1.08,1.08,0,0,1,1.59.48A1.07,1.07,0,0,1,691,352.48Zm-10.93,2.94h-3a.41.41,0,0,1-.43-.41.44.44,0,0,1,.43-.44h2.4a.67.67,0,0,1,.64-.46.65.65,0,0,1,.63.66A.67.67,0,0,1,680.1,355.42Zm0-1.85h-3a.4.4,0,0,1-.41-.42.41.41,0,0,1,.41-.43h2.47a.66.66,0,0,1,.61-.46.64.64,0,0,1,.65.65A.67.67,0,0,1,680.1,353.57Zm8,5.93h-8.77a.42.42,0,0,1-.44-.41.43.43,0,0,1,.44-.42h8.11a.69.69,0,0,1,1.36.18A.64.64,0,0,1,688.11,359.5Zm-.46-6H685a.41.41,0,0,1-.42-.42.4.4,0,0,1,.42-.41h2.14a.66.66,0,0,1,.63-.48.64.64,0,0,1,.63.65A.69.69,0,0,1,687.65,353.53Zm.63,1.89H685.1a.4.4,0,0,1-.42-.41.43.43,0,0,1,.42-.44h2.55a.69.69,0,0,1,.63-.46.66.66,0,1,1,0,1.31Z" transform="translate(-673.09 -325.59)"/><path class="cls-1" d="M686.63,385c-.5.08-1.85.15-3,.17-3,.06-4.47-.74-4.51-2.35,0-2,2.11-3.84,4.16-5.08a1.71,1.71,0,0,1-.81-.43,3.63,3.63,0,0,1-.78-2.7c0-2.32-.67-3-1.69-3.38a.36.36,0,0,1-.21-.4.34.34,0,0,1,.42-.25c2.26.55,2.35,1.56,2.41,4,0,1.14.06,1.92.46,2.28a1.65,1.65,0,0,0,1.21.3,14,14,0,0,1,1.75-.79.59.59,0,0,1,.4-.16.61.61,0,0,1,.61.59.59.59,0,0,1-.59.59c-2.49.82-6.42,3-6.39,5.28,0,.9.63,1.5,3.54,1.45a24.07,24.07,0,0,0,2.71-.16.77.77,0,0,1,.29-.07.55.55,0,0,1,0,1.1Z" transform="translate(-673.09 -325.59)"/><path class="cls-1" d="M675.78,396.72a.85.85,0,0,1-1-.7,10.06,10.06,0,0,0-1.37-1.59.36.36,0,0,1,.3-.61c1.57.26,2.64,1.15,2.75,1.94A.85.85,0,0,1,675.78,396.72Zm.18,6.35a6.05,6.05,0,0,1,1,3.51.91.91,0,0,1-.81,1,.88.88,0,0,1-.87-1.28c0-2.27-.66-3.41-1.4-3.84a.35.35,0,0,1,.24-.66,2.59,2.59,0,0,1,.72.31c.7-1.42,1.83-3.84,2.71-5.83a.35.35,0,0,1,.65.24Zm.85-11.26a.83.83,0,0,1-.7-.79A20.08,20.08,0,0,0,675,389.3a.36.36,0,0,1,.4-.57c1.53.44,2.53,1.68,2.4,2.4A.84.84,0,0,1,676.81,391.81Zm15.55,2.86h-2.59v2.94a.75.75,0,0,1-1.36.42h-3.27v2.09h4.34a.81.81,0,0,1,.79-.65.77.77,0,0,1,.78.78.81.81,0,0,1-.83.79h-5.08v2.16h5.76a.81.81,0,0,1,.79-.66.8.8,0,0,1,0,1.6h-6.53v3.34a.76.76,0,0,1-1.52,0v-3.34H678a.48.48,0,0,1,0-1h5.65V401h-4.5a.45.45,0,0,1-.46-.46.47.47,0,0,1,.46-.48h4.5V398h-4.1a.45.45,0,0,1-.46-.46.46.46,0,0,1,.46-.48h4.1v-2.42h-4.87a.44.44,0,0,1-.44-.46.45.45,0,0,1,.44-.48h4.87v-2.16h-4a.45.45,0,0,1-.46-.46.46.46,0,0,1,.46-.48h3.95v-1.75a.75.75,0,0,1,.76-.74.74.74,0,0,1,.74.74v1.77h3.32a.73.73,0,0,1,1.31.44v2.66h1.81a.83.83,0,0,1,.83-.74.8.8,0,0,1,.8.83A.83.83,0,0,1,692.36,394.67Zm-7.22-.92h3.16v-2.18h-3.16Zm0,3.36h3.16v-2.44h-3.16Z" transform="translate(-673.09 -325.59)"/><path class="cls-2" d="M676,418.08a.87.87,0,0,1-1-.83,13.61,13.61,0,0,0-1.42-1.36c-.26-.22-.17-.69.29-.61,1.68.31,2.75,1,2.83,1.79A.88.88,0,0,1,676,418.08Zm.06,7a5.73,5.73,0,0,1,1.07,3.82.92.92,0,0,1-.83.76.94.94,0,0,1-.85-1.48,5.72,5.72,0,0,0-1.35-3.93.35.35,0,0,1,.33-.61,2.9,2.9,0,0,1,.61.35c.65-1.18,2.94-6,3.42-7a.36.36,0,0,1,.66.27C678.62,418.6,676.59,423.88,676,425.1Zm1.84-11.54a.89.89,0,0,1-.92-.83c-.31-.37-1.11-1.18-1.44-1.51a.35.35,0,0,1,.3-.61c1.53.22,2.88,1,2.91,2A.87.87,0,0,1,677.88,413.56Zm15,14.57c-.22,0-.42,0-.63-.08.3.67-.27,1.44-1.2,1.13a11,11,0,0,1-4.7-3,13.59,13.59,0,0,1-6.17,3.69.36.36,0,0,1-.24-.68,15.81,15.81,0,0,0,5.5-4.1,11.4,11.4,0,0,1-2.14-5.19h-1.22c-.18,3.36-.9,6.65-3.54,9a.35.35,0,0,1-.52-.46c1.9-2.53,2.55-5.44,2.55-10.21v-4.35a.81.81,0,0,1,1.53-.43H685V410.7a.76.76,0,0,1,.76-.74.73.73,0,0,1,.74.74v2.73h3.73a1,1,0,0,1,1.75.7,1,1,0,0,1-1.16,1.07l-1.39.91a.35.35,0,0,1-.5-.48l.72-1.29h-3.15V419h2.62a1,1,0,0,1,1.64.37,1,1,0,0,1-.63,1.16,18.84,18.84,0,0,1-2.82,4.67,10.66,10.66,0,0,0,5.7,2.27.34.34,0,0,1,.3.39A.33.33,0,0,1,692.91,428.13ZM682.11,419H685v-4.63h-2.9Zm2,.92a10.45,10.45,0,0,0,2.18,4.23,19.06,19.06,0,0,0,2.43-4.23Z" transform="translate(-673.09 -325.59)"/></svg>