<svg id="レイヤー_1" data-name="レイヤー 1" xmlns="http://www.w3.org/2000/svg" viewBox="0 0 165.11 33.98"><defs><style>.cls-1{stroke:#000;}.cls-1,.cls-2{stroke-linecap:round;stroke-linejoin:round;stroke-width:0.25px;}.cls-2{fill:#e6a81b;stroke:#e6a81b;}</style></defs><path class="cls-1" d="M621.76,380.63a1.57,1.57,0,0,1-2-1.31,21.08,21.08,0,0,0-2.51-2.77A186.24,186.24,0,0,1,595,378.92a1.76,1.76,0,1,1-1.45-2.77c1.45,0,4.44,0,5.71,0,1.42-2.51,4.16-7.79,5.43-10.63a1.8,1.8,0,1,1,2.08,2.55,72,72,0,0,1-5.94,8.05c4.59-.11,10.49-.26,15.15-.62-1-.91-2.73-2.26-3.46-2.77a.58.58,0,0,1,.55-1c5.06,1.89,9,4.77,9.72,7A1.53,1.53,0,0,1,621.76,380.63Zm-3.68,15.73a1.39,1.39,0,0,1-2.77,0v-.47H598.92v.95a1.4,1.4,0,0,1-1.38,1.35,1.43,1.43,0,0,1-1.42-1.35V383.43a1.32,1.32,0,0,1,2.47-.65h17a1.35,1.35,0,0,1,2.52.65Zm-19.16-2h16.39V384.31H598.92Z" transform="translate(-591.7 -364.33)"/><path class="cls-1" d="M657.11,396.47c-6.77-5.75-6.52-15.4-6.52-21.7v-7H633v3.28c0,9.65.26,20.51-6.59,26a.59.59,0,0,1-.84-.8c4.92-7.25,4.85-14.5,4.85-25.5v-3.9a1.41,1.41,0,0,1,2.66-.58h17.7a1.3,1.3,0,0,1,2.44.62v7.91c0,5.64-.07,13.22,4.3,18.39l.65-1.28a.56.56,0,0,1,.77-.25.59.59,0,0,1,.25.8l-.58,1.17a1.67,1.67,0,1,1-1.46,2.87Zm-8-2.11a1.49,1.49,0,0,1-1.61-1.71c-.32-.51-.65-1.06-1-1.53-.58.55-8,2.66-9.62,3a1.64,1.64,0,0,1-2.4.58,1.66,1.66,0,0,1,.62-3c1.31-.18,3.39-.47,5-.73v-5.21h-2.73a1.16,1.16,0,0,1-1.16,1.24,1.15,1.15,0,0,1-1.17-1.16V377a1.18,1.18,0,0,1,2.22-.55h2.84v-3.82c-1.6.18-3.42.32-5.35.47a.59.59,0,1,1-.15-1.17c3.06-.54,6.81-1.34,9.73-2.11a1.51,1.51,0,1,1,1.35,2.11c-.88.11-2.52.37-3.21.44v4.08h2.95a1.18,1.18,0,0,1,2.22.55v8.59a1.17,1.17,0,0,1-2.33.18h-2.84v4.89l3.39-.51-1-1.28a.6.6,0,0,1,.73-.91c3.28,1.6,5,3.42,4.84,5.06A1.44,1.44,0,0,1,649.14,394.36Zm-11.77-10h2.73v-6.48h-2.73Zm5.1,0h2.81v-6.48h-2.81Z" transform="translate(-591.7 -364.33)"/><path class="cls-1" d="M680.63,394.94a50.74,50.74,0,0,1-5.08.29c-5,.09-7.52-1.25-7.59-4-.06-3.36,3.55-6.46,7-8.54a3.06,3.06,0,0,1-1.38-.74c-1-1-1.28-2.5-1.31-4.54-.06-3.91-1.12-5.09-2.85-5.7a.61.61,0,0,1-.35-.67.57.57,0,0,1,.71-.42c3.8.93,4,2.63,4.06,6.76,0,1.92.1,3.23.77,3.83a2.88,2.88,0,0,0,2,.52,23.86,23.86,0,0,1,2.94-1.35,1,1,0,0,1,.67-.25,1,1,0,1,1,0,2c-4.19,1.38-10.81,5-10.75,8.9,0,1.5,1.06,2.52,6,2.43a41.12,41.12,0,0,0,4.58-.26,1.13,1.13,0,0,1,.48-.13.93.93,0,0,1,.06,1.86Z" transform="translate(-591.7 -364.33)"/><path class="cls-2" d="M720.64,395.42a11.4,11.4,0,0,1-1.24-.48,1.49,1.49,0,0,1-2.29,1.57c-6.3-3.61-11-10.2-12.57-18.61-1.24,9.47-6.19,16.61-15.15,19.81a.63.63,0,0,1-.55-1.13c7.14-4.19,12.17-10.71,13.08-20.25H689a.84.84,0,0,1-.84-.8.9.9,0,0,1,.84-.87h13.08c.25-2.74.29-5.43.29-8.31a1.79,1.79,0,0,1,1.89-1.86,1.71,1.71,0,0,1,1,3c0,2.33-.11,4.77-.29,7.21h12.82a1.49,1.49,0,0,1,1.46-1.24,1.43,1.43,0,0,1,1.42,1.46,1.4,1.4,0,0,1-1.42,1.42H705.56a24.93,24.93,0,0,0,15.48,18,.62.62,0,0,1,.33.77A.57.57,0,0,1,720.64,395.42Z" transform="translate(-591.7 -364.33)"/><path class="cls-1" d="M755.2,368.57H742.48v4.48h10a1.23,1.23,0,0,1,1.06-.62,1.21,1.21,0,0,1,1.2,1.21v21.85a1.57,1.57,0,0,1-1.6,1.57,1.59,1.59,0,0,1-1.57-1.57,1.19,1.19,0,0,1,.15-.62h-1.64a.62.62,0,0,1-.58-.58.63.63,0,0,1,.58-.62h2.26V374.58h-9.84v21a1.18,1.18,0,0,1-2.36,0v-21h-9.84v21.35a1.2,1.2,0,1,1-2.4,0V373.78a1.21,1.21,0,0,1,1.2-1.2,1.17,1.17,0,0,1,.95.47h10.09v-4.48h-14a.8.8,0,0,1,0-1.6h27.58a1.48,1.48,0,0,1,1.49-1.42,1.51,1.51,0,0,1,1.53,1.49A1.53,1.53,0,0,1,755.2,368.57Zm-19.49,22.08a1.33,1.33,0,0,1-1.24-1.35c-.47-.8-1.67-2.62-2-3.13s.07-1.13.73-.88c1.63.69,3.68,2.3,3.93,3.75A1.33,1.33,0,0,1,735.71,390.65Zm.87-8a1.35,1.35,0,0,1-1.38-1.2c-.44-.62-1.71-2.22-2.08-2.66a.58.58,0,0,1,.62-.95c1.71.48,3.72,1.64,4.08,3A1.36,1.36,0,0,1,736.58,382.63Zm11.66,7.43a1.38,1.38,0,0,1-1.46-1.16c-.54-.66-1.89-2.15-2.29-2.55a.57.57,0,0,1,.54-1c1.79.37,4,1.5,4.37,2.92A1.36,1.36,0,0,1,748.24,390.06Zm.22-6.88a1.29,1.29,0,0,1-1.39-.88,28,28,0,0,0-2.4-2.84.57.57,0,0,1,.51-1c1.75.26,3.93,1.49,4.44,2.91A1.38,1.38,0,0,1,748.46,383.18Z" transform="translate(-591.7 -364.33)"/></svg>