<?xml version="1.0" encoding="UTF-8"?>
<svg id="_レイヤー_1" data-name="レイヤー 1" xmlns="http://www.w3.org/2000/svg" viewBox="0 0 224.68 126.04">
  <defs>
    <style>
      .cls-1 {
        fill: #f8e496;
      }
    </style>
  </defs>
  <path class="cls-1" d="m132.41,21.01L153.42,0l12.86,12.86-8.15,8.15,8.15,8.15-12.86,12.86-21.01-21.01Zm29.29,41.73l12.15,13.54,19.61-17.6-12.15-13.54-19.61,17.6Zm23.33-20.72l12.86-12.86-8.15-8.15,8.15-8.15-12.86-12.86-21.01,21.01,21.01,21.01Zm-50.36-12.86l-8.15-8.15,8.15-8.15L121.81,0l-21.01,21.01,21.01,21.01,12.86-12.86Zm33.6,49.88l-9.84-10.93v-24.49h-18.19v24.49l-9.84,10.93h-30.16v18.19h38.26l10.83-12.03,10.83,12.03h38.26v-18.19h-30.16Zm-63.04-20.37l19.61,17.6,12.15-13.54-19.61-17.6-12.15,13.54Z"/>
  <path d="m18.17,73.36l10.19,4.43,19.38-44.58h-11.53l11.16-26.32H2.35v84.73h15.82v-18.27Zm0-50.65h5.32l-5.32,12.54v-12.54Zm0,26.32h5.45l-5.45,12.53v-12.53ZM0,126.04h1.56l1.83-1.79h-1.56l-1.83,1.79Zm51.9-59.11v-2.67h14.01v-7.15l-12.08-8.49h-3.73v11.73h-3.05v6.58h4.86Zm13.8-26.43v-9.49h25.65v-15.82h-18.75V6.86h-15.82v8.32h-12.81v15.82h6.12v16.17h4.19l13.01,9.14h8.3v19.54h-14.08v15.82h29.9v-51.18h-25.71Zm-13.18,27.75v3.3h-2.02v-1.83h-3.41v15.35l-8.26,8.32h-1.67v-2.37h-2.35v3.71l-2.38,2.64h-12.32l-6.99,4.1v4.36h17.23v8.23h5.2v-7.04h2.24v2.05h5.37l3.23-1.87h.82s0,1.86,0,1.83h1.91s0-2.63,0-2.63h2.28v-3.63h2.06v5.48h2.4l2.22-7.09v-26.23l-2.89-6.67h-2.67ZM2.35,105.25v7.21h2.49v-2.47h1.73s0,5.4,0,5.4c0,0-1.05,1.06-1.11,1.06v5.43h2.47v-1.77h1.61v3.35l4.37-3.35v-11.31l-3.63-3.54H2.35Zm13.85,11.21l6.08-3.72s2.46,1.97,2.46,1.95l2.13-2.14v-3.81h-10.67v7.73Zm11.64-7.43h1.24v-2.1h-1.24v2.1Z"/>
  <g>
    <path d="m111.75,39.23v-8.61h10.1v8.61h11.12v-8.61h10.45v8.61h9.96v8.2h-9.96v5.93c.25,13.27-8.58,20.77-21.54,20.41h-10.74v-8.15h11.45c7.34.1,10.48-3.6,10.38-12.21v-5.98h-11.12v10.79h-10.1v-10.79h-8.41v-8.2h8.41Z"/>
    <path d="m180.55,74.27h-10.86v-20.41c-7.29,3.95-12.31,5.62-15.4,6.69l-4.51-7.8c10.89-3.49,24.21-9.52,36.01-23.45l7.85,5.57c-5.72,6.18-7.48,8.71-13.1,12.97v26.44Z"/>
    <path d="m207.91,29.4v13.52l16.77,5.47v9.05l-16.77-5.4v22.23h-10.7V29.4h10.7Z"/>
  </g>
</svg>