<?xml version="1.0" encoding="UTF-8"?>
<svg id="_レイヤー_1" data-name="レイヤー 1" xmlns="http://www.w3.org/2000/svg" viewBox="0 0 40.58 18.07">
  <defs>
    <style>
      .cls-1 {
        fill: #fcf4d5;
      }
    </style>
  </defs>
  <path class="cls-1" d="m18.98,3.01l3.01-3.01,1.84,1.84-1.17,1.17,1.17,1.17-1.84,1.84-3.01-3.01Zm4.2,5.98l1.74,1.94,2.81-2.52-1.74-1.94-2.81,2.52Zm3.34-2.97l1.84-1.84-1.17-1.17,1.17-1.17-1.84-1.84-3.01,3.01,3.01,3.01Zm-7.22-1.84l-1.17-1.17,1.17-1.17-1.84-1.84-3.01,3.01,3.01,3.01,1.84-1.84Zm4.82,7.15l-1.41-1.57v-3.51h-2.61v3.51l-1.41,1.57h-4.32v2.61h5.48l1.55-1.73,1.55,1.73h5.48v-2.61h-4.32Zm-9.04-2.92l2.81,2.52,1.74-1.94-2.81-2.52-1.74,1.94Z"/>
  <path d="m2.6,10.52l1.46.64,2.78-6.39h-1.65l1.6-3.77H.34v12.15h2.27v-2.62Zm0-7.26h.76l-.76,1.8v-1.8Zm0,3.77h.78l-.78,1.8v-1.8ZM0,18.07h.22l.26-.26h-.22l-.26.26Zm7.44-8.47v-.38h2.01v-1.03l-1.73-1.22h-.53v1.68h-.44v.94h.7Zm1.98-3.79v-1.36h3.68v-2.27h-2.69V.98h-2.27v1.19h-1.84v2.27h.88v2.32h.6l1.86,1.31h1.19v2.8h-2.02v2.27h4.29v-7.34h-3.69Zm-1.89,3.98v.47h-.29v-.26h-.49v2.2l-1.18,1.19h-.24v-.34h-.34v.53l-.34.38h-1.77l-1,.59v.63h2.47v1.18h.75v-1.01h.32v.29h.77l.46-.27h.12s0,.27,0,.26h.27s0-.38,0-.38h.33v-.52h.3v.79h.34l.32-1.02v-3.76l-.41-.96h-.38ZM.34,15.09v1.03h.36v-.35h.25s0,.77,0,.77c0,0-.15.15-.16.15v.78h.35v-.25h.23v.48l.63-.48v-1.62l-.52-.51H.34Zm1.99,1.61l.87-.53s.35.28.35.28l.31-.31v-.55h-1.53v1.11Zm1.67-1.07h.18v-.3h-.18v.3Z"/>
  <g>
    <path d="m16.6,4.56v-1.83h2.14v1.83h2.36v-1.83h2.22v1.83h2.12v1.74h-2.12v1.26c.05,2.82-1.82,4.41-4.57,4.33h-2.28v-1.73h2.43c1.56.02,2.23-.76,2.2-2.59v-1.27h-2.36v2.29h-2.14v-2.29h-1.78v-1.74h1.78Z"/>
    <path d="m31.2,12h-2.3v-4.33c-1.55.84-2.61,1.19-3.27,1.42l-.96-1.66c2.31-.74,5.14-2.02,7.65-4.98l1.67,1.18c-1.22,1.31-1.59,1.85-2.78,2.75v5.61Z"/>
    <path d="m37.02,2.47v2.87l3.56,1.16v1.92l-3.56-1.15v4.72h-2.27V2.47h2.27Z"/>
  </g>
</svg>