<?xml version="1.0" encoding="UTF-8"?>
<svg id="_レイヤー_1" data-name="レイヤー 1" xmlns="http://www.w3.org/2000/svg" viewBox="0 0 14.58 8.92">
  <defs>
    <style>
      .cls-1 {
        fill: none;
      }
    </style>
  </defs>
  <polygon class="cls-1" points="3.37 0 0 0 0 4.46 3.37 0"/>
  <polygon class="cls-1" points="3.91 8.92 10.66 0 7.16 0 .41 8.92 3.91 8.92"/>
  <polygon class="cls-1" points="11.2 8.92 14.58 4.45 14.58 0 14.44 0 7.7 8.92 11.2 8.92"/>
  <polygon points="0 8.92 .41 8.92 7.16 0 3.37 0 0 4.46 0 8.92"/>
  <polygon points="7.7 8.92 14.44 0 10.66 0 3.91 8.92 7.7 8.92"/>
  <polygon points="14.58 8.92 14.58 4.45 11.2 8.92 14.58 8.92"/>
</svg>