<svg xmlns="http://www.w3.org/2000/svg" width="40" height="40" viewBox="0 0 40 40"><defs><style>.cls-1{fill:none;}.cls-2,.cls-3{fill:#666;}.cls-3{opacity:0;}</style></defs><title>アセット 2</title><g id="レイヤー_2" data-name="レイヤー 2"><g id="レイヤー_1-2" data-name="レイヤー 1"><rect class="cls-1" width="40" height="40"/><path class="cls-2" d="M29,15.33h-.67V12a8.33,8.33,0,1,0-16.66,0v3.33H11a3.34,3.34,0,0,0-3.33,3.34V31.33A3.34,3.34,0,0,0,11,34.67H29a3.34,3.34,0,0,0,3.33-3.34V18.67A3.34,3.34,0,0,0,29,15.33Zm-9,13A3.33,3.33,0,1,1,23.33,25,3.33,3.33,0,0,1,20,28.33Zm5.17-13H14.83V12a5.17,5.17,0,0,1,10.34,0Z"/><rect class="cls-3" width="40" height="40"/></g></g></svg>